<svg xmlns="http://www.w3.org/2000/svg" version="1.1" xmlns:xlink="http://www.w3.org/1999/xlink" xmlns:svgjs="http://svgjs.dev/svgjs" width="1500" height="1500" viewBox="0 0 1500 1500"><rect width="1500" height="1500" fill="#293040"></rect><g transform="matrix(0.6666666666666666,0,0,0.6666666666666666,249.00680460694667,437.6623655913979)"><svg viewBox="0 0 398 248" data-background-color="#293040" preserveAspectRatio="xMidYMid meet" height="934" width="1500" xmlns="http://www.w3.org/2000/svg" xmlns:xlink="http://www.w3.org/1999/xlink"><g id="tight-bounds" transform="matrix(1,0,0,1,0.39529176643520714,0.4000000000000057)"><svg viewBox="0 0 395.52 247.2" height="247.2" width="395.52"><g><svg></svg></g><g><svg viewBox="0 0 395.52 247.2" height="247.2" width="395.52"><mask id="066138fb-904d-4c49-bfff-7d7ecbf63bec"><rect width="395.52" height="247.2" fill="white"></rect><g transform="matrix(1,0,0,1,0,72.56263783962935)" id="clone"><svg viewBox="0 0 395.52 102.0747243207413" height="102.0747243207413" width="395.52"><g><svg viewBox="0 0 395.52 102.0747243207413" height="102.0747243207413" width="395.52"><g><svg viewBox="0 0 540.1672283534594 139.40488703802157" height="102.0747243207413" width="395.52"><g transform="matrix(1,0,0,1,0,32.06369612770531)"><svg viewBox="0 0 395.52 75.27749478261094" height="75.27749478261094" width="395.52"><g id="SvgjsG1655"><svg viewBox="0 0 395.52 75.27749478261094" height="75.27749478261094" width="395.52" id="SvgjsSvg1654"><g><svg viewBox="0 0 395.52 40.21728052088985" height="40.21728052088985" width="395.52"><g transform="matrix(1,0,0,1,0,0)"><svg width="395.52" viewBox="-1.5000000000000002 -43.8 461.71 47.849999999999994" height="40.21728052088985" data-palette-color="#dee0e4"><path d="M32.2-12.7L32.2-12.7 32.2-37.6 28.15-38.1 28.15-39.95Q30.9-39.75 33.2-39.75L33.2-39.75Q35.1-39.75 38.3-39.9L38.3-39.9 38.3-38.1 35.15-37.5Q34.95-35.6 34.95-31.65L34.95-31.65 34.95-13Q34.75-5.9 31.6-2.45 28.45 1 20.55 1L20.55 1Q5.65 1 5.65-12.55L5.65-12.55 5.65-37.6 1.6-38.1Q1.4-38.85 1.6-39.95L1.6-39.95Q4.35-39.75 8.45-39.75L8.45-39.75Q12.1-39.75 15.35-39.9L15.35-39.9Q15.65-39 15.35-38.1L15.35-38.1 11.2-37.5Q11-35.6 11-31.65L11-31.65 11-12.55Q11-6.95 13.6-4.58 16.2-2.2 22.2-2.2L22.2-2.2Q27.85-2.2 30.03-4.67 32.2-7.15 32.2-12.7ZM50.7-26.7L50.7-26.7 50.6-21.55Q51.85-23.85 54.07-25.78 56.3-27.7 58.3-27.7L58.3-27.7Q59.85-27.7 61.05-27.35L61.05-27.35Q61.45-26.7 61.45-25.65L61.45-25.65Q61.45-24 60.75-22.35L60.75-22.35Q58.95-22.85 57.3-22.85L57.3-22.85Q53.2-22.85 50.55-18.85L50.55-18.85 50.45-10.1 50.45-2.55 56-1.8Q56.2-1 56 0.2L56 0.2Q52.85 0.05 48.8 0.05L48.8 0.05Q45.75 0.05 41.55 0.15L41.55 0.15Q41.25-0.8 41.55-1.8L41.55-1.8 45.5-2.35Q45.7-5.1 45.7-8.7L45.7-8.7 45.7-22.4Q45.7-23.4 45.55-24.25L45.55-24.25 41.6-24.75Q41.4-25.5 41.6-26.65L41.6-26.65Q45.05-26.9 50.2-27.7L50.2-27.7Q50.65-27.2 50.7-26.7ZM70.4-31.7L70.4-23.55Q74.55-27.7 79.45-27.7L79.45-27.7Q84.3-27.7 87.02-24.05 89.75-20.4 89.75-14.2L89.75-14.2Q89.75-7.15 85.95-3.08 82.15 1 76.5 1L76.5 1Q71.6 1 68.8-2.5L68.8-2.5 67.75 0.9Q66.8 1.05 66.15 0.9L66.15 0.9 65.65-4.6 65.65-37.35 61.55-37.85Q61.35-38.6 61.55-39.75L61.55-39.75Q65-40 70.15-40.8L70.15-40.8Q70.6-40.3 70.65-39.8L70.65-39.8Q70.4-38.5 70.4-31.7L70.4-31.7ZM77.6-1.75L77.6-1.75Q80.7-1.75 82.72-4.63 84.75-7.5 84.75-12.75L84.75-12.75Q84.75-13.8 84.7-14.35L84.7-14.35Q84.7-19.3 82.72-22 80.75-24.7 77.75-24.7L77.75-24.7Q76-24.7 73.95-23.58 71.9-22.45 70.4-20.5L70.4-20.5 70.4-5.2Q72.1-3.25 73.65-2.5 75.2-1.75 77.6-1.75ZM98.69-6.65L98.69-6.65Q98.69-4.05 99.64-2.98 100.59-1.9 102.64-1.9L102.64-1.9Q104.14-1.9 105.97-2.83 107.79-3.75 109.34-5.5L109.34-5.5 109.34-13.3Q104.19-13 101.44-11.48 98.69-9.95 98.69-6.65ZM109.34-15.1L109.34-15.1 109.34-17.65Q109.34-21.9 108.37-23.83 107.39-25.75 105.14-25.75L105.14-25.75Q102.84-25.75 101.44-24.28 100.04-22.8 99.54-19.25L99.54-19.25Q97.94-18.9 97.19-18.9L97.19-18.9Q95.24-18.9 94.89-20.3L94.89-20.3Q94.89-23.7 97.84-25.7 100.79-27.7 105.19-27.7L105.19-27.7Q110.04-27.7 112.07-25.73 114.09-23.75 114.09-18.65L114.09-18.65 114.09-4.55Q114.09-3.3 114.24-2.4L114.24-2.4 118.19-1.9Q118.39-1.15 118.19 0L118.19 0Q114.64 0.15 110.64 0.7L110.64 0.7Q110.24 0.3 110.14-0.3L110.14-0.3 109.89-3.75Q105.74 1 100.64 1L100.64 1Q97.49 1 95.72-0.8 93.94-2.6 93.94-5.65L93.94-5.65Q93.94-10.25 98.12-12.6 102.29-14.95 109.34-15.1ZM140.94-8.7L140.94-17.85Q140.94-21.7 139.92-23.25 138.89-24.8 136.49-24.8L136.49-24.8Q132.79-24.8 129.04-19.25L129.04-19.25 129.04-2.55 133.09-1.8Q133.29-1 133.09 0.2L133.09 0.2Q129.94 0.05 126.64 0.05L126.64 0.05Q124.34 0.05 120.14 0.15L120.14 0.15Q119.84-0.8 120.14-1.8L120.14-1.8 124.09-2.35Q124.29-5.1 124.29-8.7L124.29-8.7 124.29-22.4Q124.29-23.4 124.14-24.25L124.14-24.25 120.19-24.75Q119.99-25.5 120.19-26.65L120.19-26.65Q123.64-26.9 128.79-27.7L128.79-27.7Q129.24-27.2 129.29-26.7L129.29-26.7Q129.04-25.4 129.04-22.25L129.04-22.25Q132.99-27.7 137.94-27.7L137.94-27.7Q145.69-27.7 145.69-20.35L145.69-20.35 145.69-2.55 149.74-1.8Q149.94-1 149.74 0.2L149.74 0.2Q146.59 0.05 143.29 0.05L143.29 0.05Q140.99 0.05 136.79 0.15L136.79 0.15Q136.49-0.8 136.79-1.8L136.79-1.8 140.74-2.35Q140.94-5.1 140.94-8.7L140.94-8.7ZM169.44-8.15L169.44-8.15 169.44-37.6 165.39-38.15Q165.09-39.05 165.39-39.95L165.39-39.95 172.24-39.8 192.44-39.8 192.49-28.2Q191.39-28 190.64-28.2L190.64-28.2 188.29-37.25 174.79-37.25 174.79-22.5 182.79-22.65 183.94-27.55Q184.69-27.75 185.79-27.55L185.79-27.55Q185.59-24.75 185.59-21.1L185.59-21.1Q185.59-17.75 185.74-14.6L185.74-14.6Q184.84-14.3 183.94-14.6L183.94-14.6 182.84-19.8 174.79-19.95 174.79-2.2 179.34-1.7Q179.54-0.95 179.34 0.15L179.34 0.15Q176.19 0 172.24 0L172.24 0Q169.29 0 165.09 0.1L165.09 0.1Q164.79-0.8 165.09-1.7L165.09-1.7 169.24-2.3Q169.44-4.2 169.44-8.15ZM193.58-13.3L193.58-13.3Q193.58-16.3 194.46-18.93 195.33-21.55 196.98-23.5 198.63-25.45 200.96-26.58 203.28-27.7 206.18-27.7L206.18-27.7Q209.03-27.7 211.38-26.58 213.73-25.45 215.41-23.5 217.08-21.55 217.98-18.93 218.88-16.3 218.88-13.3L218.88-13.3Q218.88-10.2 217.96-7.6 217.03-5 215.36-3.08 213.68-1.15 211.33-0.08 208.98 1 206.18 1L206.18 1Q203.23 1 200.91-0.05 198.58-1.1 196.96-3 195.33-4.9 194.46-7.53 193.58-10.15 193.58-13.3ZM200.88-22.5L200.88-22.5Q198.73-19.45 198.73-13.3L198.73-13.3Q198.73-10.25 199.31-7.95 199.88-5.65 200.88-4.13 201.88-2.6 203.23-1.85 204.58-1.1 206.18-1.1L206.18-1.1Q207.73-1.1 209.13-1.85 210.53-2.6 211.53-4.13 212.53-5.65 213.13-7.95 213.73-10.25 213.73-13.3L213.73-13.3Q213.73-16.35 213.13-18.68 212.53-21 211.51-22.53 210.48-24.05 209.11-24.83 207.73-25.6 206.18-25.6L206.18-25.6Q203.08-25.6 200.88-22.5ZM246.83-26.7L246.83-26.7 246.83-7.1Q246.83-3.75 246.98-2.4L246.98-2.4 250.93-1.9Q251.08-1.1 250.93 0L250.93 0Q247.28 0.15 243.33 0.7L243.33 0.7Q242.98 0.35 242.83-0.25L242.83-0.25 242.58-4.7Q240.48-2 238.26-0.5 236.03 1 233.03 1L233.03 1Q229.98 1 227.91-0.55 225.83-2.1 225.83-5.85L225.83-5.85 225.83-16.95Q225.83-22.65 225.68-24.25L225.68-24.25 221.73-24.75Q221.53-25.5 221.73-26.65L221.73-26.65Q225.18-26.9 230.33-27.7L230.33-27.7Q230.78-27.2 230.83-26.7L230.83-26.7Q230.58-25.4 230.58-8.35L230.58-8.35Q230.58-4.85 231.41-3.38 232.23-1.9 234.48-1.9L234.48-1.9Q238.68-1.9 242.08-6.9L242.08-6.9 242.08-17Q242.08-22.65 241.93-24.25L241.93-24.25 237.98-24.75Q237.78-25.5 237.98-26.65L237.98-26.65Q240.98-26.85 246.33-27.7L246.33-27.7Q246.78-27.2 246.83-26.7ZM274.08-8.7L274.08-17.85Q274.08-21.7 273.05-23.25 272.03-24.8 269.63-24.8L269.63-24.8Q265.93-24.8 262.18-19.25L262.18-19.25 262.18-2.55 266.23-1.8Q266.43-1 266.23 0.2L266.23 0.2Q263.08 0.05 259.78 0.05L259.78 0.05Q257.48 0.05 253.28 0.15L253.28 0.15Q252.98-0.8 253.28-1.8L253.28-1.8 257.23-2.35Q257.43-5.1 257.43-8.7L257.43-8.7 257.43-22.4Q257.43-23.4 257.28-24.25L257.28-24.25 253.33-24.75Q253.13-25.5 253.33-26.65L253.33-26.65Q256.78-26.9 261.93-27.7L261.93-27.7Q262.38-27.2 262.43-26.7L262.43-26.7Q262.18-25.4 262.18-22.25L262.18-22.25Q266.13-27.7 271.08-27.7L271.08-27.7Q278.83-27.7 278.83-20.35L278.83-20.35 278.83-2.55 282.88-1.8Q283.08-1 282.88 0.2L282.88 0.2Q279.73 0.05 276.43 0.05L276.43 0.05Q274.13 0.05 269.93 0.15L269.93 0.15Q269.63-0.8 269.93-1.8L269.93-1.8 273.88-2.35Q274.08-5.1 274.08-8.7L274.08-8.7ZM309.93-31.7L309.93-7.1Q309.93-3.75 310.08-2.4L310.08-2.4 314.03-1.9Q314.18-1.1 314.03 0L314.03 0Q310.38 0.15 306.43 0.7L306.43 0.7Q306.08 0.35 305.93-0.25L305.93-0.25 305.68-3.45Q303.93-1.4 301.33-0.18 298.73 1.05 295.88 1.05L295.88 1.05Q291.53 1.05 288.68-2.58 285.83-6.2 285.83-12.25L285.83-12.25Q285.83-19.25 289.55-23.48 293.28-27.7 298.48-27.7L298.48-27.7Q302.58-27.7 305.18-25.75L305.18-25.75 305.18-32.45Q305.18-35.75 305.03-37.35L305.03-37.35 301.08-37.85Q300.88-38.6 301.08-39.75L301.08-39.75Q304.53-40 309.68-40.8L309.68-40.8Q310.13-40.3 310.18-39.8L310.18-39.8Q309.93-38.5 309.93-31.7L309.93-31.7ZM298.08-25L298.08-25Q294.83-25 292.88-21.58 290.93-18.15 290.93-12.1L290.93-12.1Q290.93-7.15 292.75-4.55 294.58-1.95 297.58-1.95L297.58-1.95Q299.38-1.95 301.53-3.08 303.68-4.2 305.18-6.2L305.18-6.2 305.18-22.2Q302.73-25 298.08-25ZM321.62-6.65L321.62-6.65Q321.62-4.05 322.57-2.98 323.52-1.9 325.57-1.9L325.57-1.9Q327.07-1.9 328.9-2.83 330.72-3.75 332.27-5.5L332.27-5.5 332.27-13.3Q327.12-13 324.37-11.48 321.62-9.95 321.62-6.65ZM332.27-15.1L332.27-15.1 332.27-17.65Q332.27-21.9 331.3-23.83 330.32-25.75 328.07-25.75L328.07-25.75Q325.77-25.75 324.37-24.28 322.97-22.8 322.47-19.25L322.47-19.25Q320.87-18.9 320.12-18.9L320.12-18.9Q318.17-18.9 317.82-20.3L317.82-20.3Q317.82-23.7 320.77-25.7 323.72-27.7 328.12-27.7L328.12-27.7Q332.97-27.7 335-25.73 337.02-23.75 337.02-18.65L337.02-18.65 337.02-4.55Q337.02-3.3 337.17-2.4L337.17-2.4 341.12-1.9Q341.32-1.15 341.12 0L341.12 0Q337.57 0.15 333.57 0.7L333.57 0.7Q333.17 0.3 333.07-0.3L333.07-0.3 332.82-3.75Q328.67 1 323.57 1L323.57 1Q320.42 1 318.65-0.8 316.87-2.6 316.87-5.65L316.87-5.65Q316.87-10.25 321.05-12.6 325.22-14.95 332.27-15.1ZM351.07-32.7L351.07-32.7 351.07-25.55 358.12-25.55Q358.22-24.95 358.22-24.65L358.22-24.65Q358.22-24.2 358.12-23.6L358.12-23.6 351.07-22.55 351.07-8.8Q351.07-5.1 351.75-3.58 352.42-2.05 353.87-2.05L353.87-2.05Q355.17-2.05 357.92-3.1L357.92-3.1Q358.42-2.65 358.62-1.4L358.62-1.4Q357.12-0.5 356.35-0.08 355.57 0.35 354.4 0.68 353.22 1 351.92 1L351.92 1Q349.42 1 347.85-0.93 346.27-2.85 346.27-6.8L346.27-6.8 346.27-23.15 342.77-23.6Q342.67-24.1 342.67-24.45L342.67-24.45Q342.67-24.85 342.77-25.55L342.77-25.55Q344.17-25.8 345.2-26.43 346.22-27.05 346.92-28.18 347.62-29.3 348-30.18 348.37-31.05 348.92-32.7L348.92-32.7Q349.37-32.85 350.02-32.85L350.02-32.85Q350.62-32.85 351.07-32.7ZM369.77-18.6L369.77-18.6 369.77-2.55 373.82-1.8Q373.87-1.55 373.89-1.35 373.92-1.15 373.92-0.9L373.92-0.9Q373.92-0.65 373.89-0.38 373.87-0.1 373.82 0.2L373.82 0.2Q370.67 0.05 367.37 0.05L367.37 0.05Q366.22 0.05 364.59 0.08 362.97 0.1 360.87 0.15L360.87 0.15Q360.72-0.3 360.72-0.8L360.72-0.8Q360.72-1.25 360.87-1.8L360.87-1.8 364.82-2.35Q364.92-3.75 364.97-5.33 365.02-6.9 365.02-8.7L365.02-8.7 365.02-19.35Q365.02-22.65 364.87-24.25L364.87-24.25 360.92-24.75Q360.82-25 360.82-25.6L360.82-25.6Q360.82-25.85 360.82-26.1 360.82-26.35 360.92-26.65L360.92-26.65Q364.32-26.85 369.52-27.7L369.52-27.7Q369.97-27.2 370.02-26.7L370.02-26.7Q369.77-25.3 369.77-18.6ZM362.47-36.45L362.47-36.45Q362.37-36.7 362.37-36.98 362.37-37.25 362.37-37.5L362.37-37.5Q362.37-38.85 363.49-39.68 364.62-40.5 366.27-40.5L366.27-40.5Q367.82-40.5 368.79-39.58 369.77-38.65 369.77-37.05L369.77-37.05Q369.77-35.75 368.64-34.95 367.52-34.15 365.77-34.15L365.77-34.15Q364.57-34.15 363.64-34.75 362.72-35.35 362.47-36.45ZM377.02-13.3L377.02-13.3Q377.02-16.3 377.89-18.93 378.77-21.55 380.42-23.5 382.07-25.45 384.39-26.58 386.72-27.7 389.62-27.7L389.62-27.7Q392.47-27.7 394.82-26.58 397.17-25.45 398.84-23.5 400.52-21.55 401.42-18.93 402.32-16.3 402.32-13.3L402.32-13.3Q402.32-10.2 401.39-7.6 400.47-5 398.79-3.08 397.12-1.15 394.77-0.08 392.42 1 389.62 1L389.62 1Q386.67 1 384.34-0.05 382.02-1.1 380.39-3 378.77-4.9 377.89-7.53 377.02-10.15 377.02-13.3ZM384.32-22.5L384.32-22.5Q382.17-19.45 382.17-13.3L382.17-13.3Q382.17-10.25 382.74-7.95 383.32-5.65 384.32-4.13 385.32-2.6 386.67-1.85 388.02-1.1 389.62-1.1L389.62-1.1Q391.17-1.1 392.57-1.85 393.97-2.6 394.97-4.13 395.97-5.65 396.57-7.95 397.17-10.25 397.17-13.3L397.17-13.3Q397.17-16.35 396.57-18.68 395.97-21 394.94-22.53 393.92-24.05 392.54-24.83 391.17-25.6 389.62-25.6L389.62-25.6Q386.52-25.6 384.32-22.5ZM426.76-8.7L426.76-17.85Q426.76-21.7 425.74-23.25 424.71-24.8 422.31-24.8L422.31-24.8Q418.61-24.8 414.86-19.25L414.86-19.25 414.86-2.55 418.91-1.8Q419.11-1 418.91 0.2L418.91 0.2Q415.76 0.05 412.46 0.05L412.46 0.05Q410.16 0.05 405.96 0.15L405.96 0.15Q405.66-0.8 405.96-1.8L405.96-1.8 409.91-2.35Q410.11-5.1 410.11-8.7L410.11-8.7 410.11-22.4Q410.11-23.4 409.96-24.25L409.96-24.25 406.01-24.75Q405.81-25.5 406.01-26.65L406.01-26.65Q409.46-26.9 414.61-27.7L414.61-27.7Q415.06-27.2 415.11-26.7L415.11-26.7Q414.86-25.4 414.86-22.25L414.86-22.25Q418.81-27.7 423.76-27.7L423.76-27.7Q431.51-27.7 431.51-20.35L431.51-20.35 431.51-2.55 435.56-1.8Q435.76-1 435.56 0.2L435.56 0.2Q432.41 0.05 429.11 0.05L429.11 0.05Q426.81 0.05 422.61 0.15L422.61 0.15Q422.31-0.8 422.61-1.8L422.61-1.8 426.56-2.35Q426.76-5.1 426.76-8.7L426.76-8.7ZM447.41-1.2L447.41-1.2Q450.11-1.2 451.41-2.45 452.71-3.7 452.71-5.35L452.71-5.35Q452.71-6.3 452.41-7.1 452.11-7.9 451.44-8.65 450.76-9.4 449.66-10.13 448.56-10.85 446.91-11.7L446.91-11.7Q444.86-12.75 443.39-13.7 441.91-14.65 440.96-15.7 440.01-16.75 439.54-17.95 439.06-19.15 439.06-20.65L439.06-20.65Q439.06-22.45 439.71-23.78 440.36-25.1 441.54-25.98 442.71-26.85 444.31-27.28 445.91-27.7 447.86-27.7L447.86-27.7Q451.76-27.7 455.46-25.8L455.46-25.8 455.46-19.4 453.11-19.4 452.01-24.8Q449.81-25.85 447.36-25.85L447.36-25.85Q443.26-25.85 443.26-22.5L443.26-22.5Q443.26-20.7 444.61-19.2 445.96-17.7 448.96-16.2L448.96-16.2Q451.01-15.15 452.56-14.2 454.11-13.25 455.14-12.2 456.16-11.15 456.69-9.93 457.21-8.7 457.21-7.15L457.21-7.15Q457.21-5.4 456.46-3.9 455.71-2.4 454.36-1.33 453.01-0.25 451.11 0.38 449.21 1 446.91 1L446.91 1Q442.46 1 438.56-0.9L438.56-0.9 438.56-7.3 440.91-7.3 442.01-2.35Q444.56-1.2 447.41-1.2Z" opacity="1" transform="matrix(1,0,0,1,0,0)" fill="black" class="wordmark-text-0" id="SvgjsPath1653" stroke-width="5" stroke="black" stroke-linejoin="round"></path></svg></g></svg></g><g transform="matrix(1,0,0,1,2.5,45.45962183632773)"><svg viewBox="0 0 390.52 29.81787294628323" height="29.81787294628323" width="390.52"><g transform="matrix(1,0,0,1,0,0)"><svg width="390.52" viewBox="-4.7 -37 694.6700000000001 53.800000000000004" height="29.81787294628323" data-palette-color="#000000"><path d="M3.3 13.8L3.3 13.8Q1.25 13.8-0.23 12.7-1.7 11.6-1.7 9.75L-1.7 9.75Q-1.7 8.3-0.83 7.28 0.05 6.25 1.35 6.25L1.35 6.25Q1.95 6.25 2.2 6.45 2.45 6.65 2.6 6.9L2.6 6.9Q3 7.55 3.53 8.03 4.05 8.5 4.95 8.5L4.95 8.5Q6.15 8.5 7.28 7.65 8.4 6.8 9.35 5.7L9.35 5.7Q10.2 4.75 11.4 2.98 12.6 1.2 13.8-1.05L13.8-1.05Q12.7-0.1 11.75 0.33 10.8 0.75 9.95 0.75L9.95 0.75Q8.9 0.75 7.9-0.03 6.9-0.8 6.65-2.95L6.65-2.95Q6.5-4.6 6.08-6.6 5.65-8.6 5.03-10.48 4.4-12.35 3.5-13.65L3.5-13.65Q3.15-14.25 2.7-14.55 2.25-14.85 1.4-14.95L1.4-14.95Q0.8-15 0.63-15.3 0.45-15.6 0.45-16.25L0.45-16.25Q0.45-18.05 1.45-19.15 2.45-20.25 4.15-20.25L4.15-20.25Q6.2-20.25 7.1-18.68 8-17.1 8.65-14.85L8.65-14.85Q8.9-13.95 9.18-12.48 9.45-11 9.68-9.3 9.9-7.6 10-6.05L10-6.05Q10.05-4.95 11.25-4.95L11.25-4.95Q12.85-4.95 14.3-5.95 15.75-6.95 16.68-8.55 17.6-10.15 17.6-11.9L17.6-11.9Q17.6-12.9 17.35-13.7 17.1-14.5 16.5-15.1L16.5-15.1Q16-15.7 15.7-16.07 15.4-16.45 15.4-16.95L15.4-16.95Q15.4-17.8 16.2-18.55 17-19.3 18.13-19.8 19.25-20.3 20.1-20.3L20.1-20.3Q21.6-20.3 22.1-18.88 22.6-17.45 22.35-15.75L22.35-15.75Q22.05-13.4 21.15-10.2 20.25-7 18.82-3.5 17.4 0 15.58 3.28 13.75 6.55 11.7 9L11.7 9Q9.95 11.15 7.8 12.48 5.65 13.8 3.3 13.8ZM55.51 0.65L55.51 0.65Q52.06 0.65 49.98-1.23 47.91-3.1 47.91-6.75L47.91-6.75Q47.91-8.45 48.38-10.05 48.86-11.65 49.66-13.05L49.66-13.05Q48.86-12.55 48.46-12.55L48.46-12.55Q47.86-12.55 47.63-13.23 47.41-13.9 47.41-14.55L47.41-14.55Q47.41-15.7 47.88-16.38 48.36-17.05 48.81-17.4L48.81-17.4Q49.86-18.3 52.11-19.38 54.36-20.45 57.51-20.45L57.51-20.45Q61.81-20.45 64.18-18.05 66.56-15.65 66.56-11.35L66.56-11.35Q66.56-8 65.16-5.28 63.76-2.55 61.28-0.95 58.81 0.65 55.51 0.65ZM57.06-4.45L57.06-4.45Q59.56-4.45 61.28-6.03 63.01-7.6 63.01-10.2L63.01-10.2Q63.01-12.9 61.26-14.05 59.51-15.2 57.21-15.2L57.21-15.2Q56.16-15.2 55.31-15 54.46-14.8 53.71-14.5L53.71-14.5Q53.01-13.5 52.46-12.25 51.91-11 51.91-9.5L51.91-9.5Q51.91-7 53.41-5.73 54.91-4.45 57.06-4.45ZM98.22 0.65L98.22 0.65Q95.72 0.65 94.34-0.8 92.97-2.25 92.97-5L92.97-5Q92.97-6.95 93.52-9L93.52-9Q93.77-9.85 93.92-10.7 94.07-11.55 94.07-12.4L94.07-12.4Q94.07-14.6 92.72-15.25L92.72-15.25Q91.42-15.95 91.42-16.75L91.42-16.75Q91.42-17.55 92.09-18.35 92.77-19.15 93.77-19.68 94.77-20.2 95.77-20.2L95.77-20.2Q98.62-20.2 98.62-15.55L98.62-15.55Q98.62-14.05 98.39-12.78 98.17-11.5 97.87-10.35L97.87-10.35Q97.67-9.55 97.54-8.75 97.42-7.95 97.42-7.35L97.42-7.35Q97.42-4.85 99.87-4.85L99.87-4.85Q102.17-4.85 104.17-7.3 106.17-9.75 107.47-14.15L107.47-14.15 107.42-15.1Q107.32-17.6 108.29-18.9 109.27-20.2 111.17-20.2L111.17-20.2Q112.82-20.2 112.82-19.15L112.82-19.15Q112.82-18.8 112.69-18.25 112.57-17.7 112.32-16.95L112.32-16.95Q111.82-15.1 111.47-13.03 111.12-10.95 111.12-9.2L111.12-9.2Q111.12-7.25 111.72-5.98 112.32-4.7 113.97-4.25L113.97-4.25Q114.42-4.2 114.69-3.98 114.97-3.75 114.97-3.05L114.97-3.05Q114.97-1.85 113.97-0.7 112.97 0.45 111.07 0.45L111.07 0.45Q107.42 0.45 107.42-4.7L107.42-4.7Q107.42-5.6 107.57-7.4L107.57-7.4 107.47-7.45Q104.32 0.65 98.22 0.65ZM182.03 0.65L182.03 0.65Q180.18 0.65 178.58 0.1 176.98-0.45 175.98-1.45 174.98-2.45 174.98-3.85L174.98-3.85Q174.98-4.6 175.36-5.28 175.73-5.95 176.58-5.95L176.58-5.95Q177.03-5.95 177.53-5.7L177.53-5.7Q178.43-5.2 179.83-4.78 181.23-4.35 182.78-4.35L182.78-4.35Q184.53-4.35 185.88-4.85 187.23-5.35 187.23-6.25L187.23-6.25Q187.23-6.95 186.21-7.25 185.18-7.55 182.78-7.9L182.78-7.9Q181.13-8.2 179.58-8.6 178.03-9 177.03-9.98 176.03-10.95 176.03-12.85L176.03-12.85Q176.03-14.7 177.06-16.43 178.08-18.15 180.13-19.3 182.18-20.45 185.13-20.45L185.13-20.45Q186.68-20.45 188.13-20.1 189.58-19.75 190.53-19.05 191.48-18.35 191.48-17.3L191.48-17.3Q191.48-16.4 190.86-15.65 190.23-14.9 189.41-14.43 188.58-13.95 188.03-13.95L188.03-13.95Q187.63-13.95 187.08-14.5L187.08-14.5Q186.23-15.2 185.21-15.48 184.18-15.75 183.18-15.75L183.18-15.75Q181.68-15.75 180.76-15.3 179.83-14.85 179.83-14.15L179.83-14.15Q179.83-13.5 180.61-13.1 181.38-12.7 182.53-12.53 183.68-12.35 184.73-12.2L184.73-12.2Q187.63-11.8 189.33-10.83 191.03-9.85 191.03-7.4L191.03-7.4Q191.03-5.5 189.96-3.63 188.88-1.75 186.86-0.55 184.83 0.65 182.03 0.65ZM223.09 0.65L223.09 0.65Q220.09 0.65 218.26-1.23 216.44-3.1 216.44-6.6L216.44-6.6Q216.44-9.1 217.41-11.58 218.39-14.05 220.24-16.05 222.09-18.05 224.69-19.25 227.29-20.45 230.54-20.45L230.54-20.45Q233.54-20.45 235.66-19.43 237.79-18.4 237.79-16.65L237.79-16.65Q237.79-16.2 237.69-15.48 237.59-14.75 237.44-14.3L237.44-14.3Q237.29-13.9 237.01-13.58 236.74-13.25 236.29-13.25L236.29-13.25Q236.09-13.25 235.54-13.4L235.54-13.4Q235.34-12.35 235.24-11.35 235.14-10.35 235.14-9.35L235.14-9.35Q235.14-7.45 235.71-5.98 236.29-4.5 237.99-4.15L237.99-4.15Q238.44-4.05 238.71-3.85 238.99-3.65 238.99-3L238.99-3Q238.99-2.45 238.71-1.6 238.44-0.75 237.66-0.08 236.89 0.6 235.44 0.6L235.44 0.6Q233.49 0.6 232.44-0.83 231.39-2.25 231.39-4.9L231.39-4.9Q230.04-2.45 227.96-0.9 225.89 0.65 223.09 0.65ZM224.69-4.55L224.69-4.55Q226.69-4.55 228.21-5.8 229.74-7.05 230.59-8.95L230.59-8.95Q231.14-10.15 231.44-11.58 231.74-13 231.84-14.4L231.84-14.4Q230.99-14.8 229.89-15.05 228.79-15.3 227.59-15.3L227.59-15.3Q224.54-15.3 222.56-13.5 220.59-11.7 220.59-9L220.59-9Q220.59-7 221.69-5.78 222.79-4.55 224.69-4.55ZM267.85-24.85L267.85-24.85Q266.45-24.9 265.6-25.7 264.75-26.5 264.75-27.95L264.75-27.95Q264.8-29.5 265.8-30.48 266.8-31.45 268.35-31.4L268.35-31.4Q269.8-31.35 270.62-30.55 271.45-29.75 271.4-28.3L271.4-28.3Q271.35-26.8 270.4-25.83 269.45-24.85 267.85-24.85ZM267.9 0.5L267.9 0.5Q266.4 0.5 265.55-0.33 264.7-1.15 264.7-3.15L264.7-3.15Q264.7-4.3 264.92-5.4 265.15-6.5 265.45-7.55L265.45-7.55Q265.8-8.65 266.02-9.8 266.25-10.95 266.25-12.25L266.25-12.25Q266.25-13.15 266-13.98 265.75-14.8 264.9-15.2L264.9-15.2Q264.25-15.55 263.77-15.93 263.3-16.3 263.3-16.9L263.3-16.9Q263.3-17.6 263.95-18.4 264.6-19.2 265.67-19.78 266.75-20.35 267.9-20.35L267.9-20.35Q269.15-20.35 269.72-19.7 270.3-19.05 270.5-18.05 270.7-17.05 270.7-16L270.7-16Q270.7-14.4 270.45-12.88 270.2-11.35 269.95-10.05L269.95-10.05Q269.75-9.1 269.65-8.3 269.55-7.5 269.55-6.8L269.55-6.8Q269.55-5.55 270.15-4.93 270.75-4.3 271.85-3.75L271.85-3.75Q272.3-3.5 272.3-3L272.3-3Q272.3-2.6 271.9-1.75 271.5-0.9 270.52-0.2 269.55 0.5 267.9 0.5ZM303.86 0.65L303.86 0.65Q300.86 0.65 299.13-1.35 297.41-3.35 297.41-6.8L297.41-6.8Q297.41-9.35 298.23-11.8 299.06-14.25 300.56-16.2 302.06-18.15 304.06-19.3 306.06-20.45 308.41-20.45L308.41-20.45Q309.91-20.45 311.08-20 312.26-19.55 313.16-18.85L313.16-18.85Q313.11-22.25 312.81-24.95 312.51-27.65 311.36-29.95L311.36-29.95Q311.16-30.35 311.03-30.68 310.91-31 310.91-31.3L310.91-31.3Q310.91-32 311.48-32.6 312.06-33.2 312.91-33.6 313.76-34 314.51-34L314.51-34Q315.86-34 316.53-32.83 317.21-31.65 317.41-29.63 317.61-27.6 317.61-25L317.61-25Q317.61-21.2 317.26-18.15 316.91-15.1 316.61-12.8L316.61-12.8Q316.41-11.3 316.26-10.2 316.11-9.1 316.11-8.4L316.11-8.4Q316.11-4.85 319.16-4.2L319.16-4.2Q319.96-4.05 319.96-3.15L319.96-3.15Q319.96-2.6 319.63-1.75 319.31-0.9 318.46-0.23 317.61 0.45 316.01 0.45L316.01 0.45Q313.86 0.45 313.11-1 312.36-2.45 312.36-5.4L312.36-5.4Q310.96-2.85 308.81-1.1 306.66 0.65 303.86 0.65ZM305.41-4.7L305.41-4.7Q306.81-4.7 308.21-5.6 309.61-6.5 310.71-8.05L310.71-8.05Q311.36-9 311.88-10.23 312.41-11.45 312.86-12.7L312.86-12.7Q310.31-15 307.21-15L307.21-15Q304.51-15 302.91-13.38 301.31-11.75 301.31-9.35L301.31-9.35Q301.31-7.3 302.51-6 303.71-4.7 305.41-4.7ZM387.67 0.7L387.67 0.7Q386.27 0.7 385.3-0.13 384.32-0.95 384.17-3.2L384.17-3.2Q384.07-4.9 383.75-7 383.42-9.1 382.97-10.95 382.52-12.8 381.92-13.75L381.92-13.75Q381.57-14.3 381.15-14.58 380.72-14.85 379.87-14.95L379.87-14.95Q378.97-15 378.97-16.25L378.97-16.25Q378.97-18.3 380.07-19.28 381.17-20.25 382.57-20.25L382.57-20.25Q384.07-20.25 385.02-19.28 385.97-18.3 386.5-16.68 387.02-15.05 387.25-13.05 387.47-11.05 387.47-9L387.47-9Q387.47-8.25 387.45-7.53 387.42-6.8 387.42-6.1L387.42-6.1Q387.42-5.6 387.62-5.28 387.82-4.95 388.62-4.95L388.62-4.95Q389.72-4.95 391.22-5.53 392.72-6.1 393.85-7.45 394.97-8.8 394.97-11.05L394.97-11.05Q394.97-12.2 394.62-12.98 394.27-13.75 393.67-14.45L393.67-14.45Q393.47-14.7 393.32-14.95 393.17-15.2 393.17-15.55L393.17-15.55Q393.17-16.5 393.95-17.07 394.72-17.65 395.7-17.93 396.67-18.2 397.32-18.2L397.32-18.2Q397.97-18.2 398.35-17.88 398.72-17.55 398.92-16.6L398.92-16.6Q399.12-15.95 399.22-15.18 399.32-14.4 399.32-13.4L399.32-13.4Q399.32-11.85 399.2-10.9 399.07-9.95 398.92-9.2L398.92-9.2Q398.77-8.55 398.7-7.93 398.62-7.3 398.62-6.45L398.62-6.45Q398.62-5.55 398.97-5.25 399.32-4.95 400.07-4.95L400.07-4.95Q402.92-4.95 404.72-6.93 406.52-8.9 406.52-11.75L406.52-11.75Q406.52-12.75 406.22-13.63 405.92-14.5 405.17-15.3L405.17-15.3Q404.77-15.8 404.52-16.13 404.27-16.45 404.27-16.95L404.27-16.95Q404.27-17.85 405.1-18.6 405.92-19.35 407.05-19.83 408.17-20.3 409.07-20.3L409.07-20.3Q410.42-20.3 410.82-19.05 411.22-17.8 411.22-16.2L411.22-16.2Q411.22-13.5 410.45-10.58 409.67-7.65 408.22-5.08 406.77-2.5 404.67-0.9 402.57 0.7 399.92 0.7L399.92 0.7Q397.22 0.7 396.22-0.85 395.22-2.4 395.37-4.6L395.37-4.6Q393.87-2.3 391.85-0.8 389.82 0.7 387.67 0.7ZM443.78 0.65L443.78 0.65Q439.98 0.65 437.85-1.53 435.73-3.7 435.73-7.6L435.73-7.6Q435.73-11.15 437.28-14.05 438.83-16.95 441.45-18.68 444.08-20.4 447.23-20.4L447.23-20.4Q450.23-20.4 452.03-18.93 453.83-17.45 453.83-15L453.83-15Q453.83-13.05 452.63-11.4 451.43-9.75 449.43-8.78 447.43-7.8 444.98-7.8L444.98-7.8Q441.98-7.8 440.08-9.15L440.08-9.15Q440.13-6.85 441.65-5.45 443.18-4.05 445.58-4.05L445.58-4.05Q447.03-4.05 448.55-4.58 450.08-5.1 451.18-6L451.18-6Q451.88-6.6 452.48-6.6L452.48-6.6Q452.98-6.6 453.3-6.28 453.63-5.95 453.63-5.45L453.63-5.45Q453.63-4.35 451.73-2.55L451.73-2.55Q448.38 0.65 443.78 0.65ZM444.53-11.1L444.53-11.1Q446.33-11.1 447.53-11.85 448.73-12.6 448.73-13.75L448.73-13.75Q448.73-14.7 447.93-15.23 447.13-15.75 445.73-15.75L445.73-15.75Q443.88-15.75 442.5-14.78 441.13-13.8 440.53-12.05L440.53-12.05Q441.23-11.6 442.33-11.35 443.43-11.1 444.53-11.1ZM518.1 0.55L518.1 0.55Q516.3 0.55 516.5-0.65L516.5-0.65Q517.05-2.8 517.42-5.03 517.8-7.25 517.8-9.3L517.8-9.3Q517.8-11.95 517.47-13.18 517.15-14.4 516.6-14.88 516.05-15.35 515.25-15.6L515.25-15.6Q514.9-15.75 514.62-16 514.35-16.25 514.35-16.7L514.35-16.7Q514.35-17.4 514.9-18.25 515.45-19.1 516.47-19.73 517.5-20.35 518.8-20.35L518.8-20.35Q520.5-20.35 521.15-19.18 521.8-18 521.8-16.1L521.8-16.1Q521.8-14.85 521.55-13.3 521.3-11.75 521.05-10.5L521.05-10.5 521.15-10.45Q521.95-13.1 523.12-15.35 524.3-17.6 525.97-19 527.65-20.4 529.85-20.4L529.85-20.4Q532.1-20.4 533.4-18.88 534.7-17.35 534.7-14.4L534.7-14.4 534.7-13.3Q536.15-16.35 538.22-18.4 540.3-20.45 543.25-20.45L543.25-20.45Q545.65-20.45 547-18.85 548.35-17.25 548.35-14.85L548.35-14.85Q548.35-13.9 548.15-13.03 547.95-12.15 547.7-11.3L547.7-11.3Q547.5-10.5 547.3-9.65 547.1-8.8 547.1-7.95L547.1-7.95Q547.1-4.95 549.65-4.05L549.65-4.05Q550-3.9 550.2-3.73 550.4-3.55 550.4-3.1L550.4-3.1Q550.4-2.65 550.12-1.8 549.85-0.95 549.05-0.23 548.25 0.5 546.75 0.5L546.75 0.5Q544.8 0.5 543.75-0.93 542.7-2.35 542.7-4.55L542.7-4.55Q542.7-5.65 542.9-6.85 543.1-8.05 543.4-9.15L543.4-9.15Q543.65-10.15 543.82-11.05 544-11.95 544-12.6L544-12.6Q544-13.8 543.42-14.35 542.85-14.9 541.9-14.9L541.9-14.9Q540.3-14.9 539.02-13.9 537.75-12.9 536.77-11.3 535.8-9.7 535.1-7.8L535.1-7.8Q535.15-7.35 535.17-6.63 535.2-5.9 535.2-5.35L535.2-5.35Q535.2-4.4 535.07-3.35 534.95-2.3 534.6-1.6L534.6-1.6Q534.2-0.65 533.42-0.05 532.65 0.55 531.35 0.55L531.35 0.55Q530.8 0.55 530.3 0.33 529.8 0.1 529.8-0.4L529.8-0.4Q529.8-0.6 530.1-2.18 530.4-3.75 530.7-6.05 531-8.35 531-10.55L531-10.55Q531-12.95 530.5-13.88 530-14.8 529-14.8L529-14.8Q527.75-14.8 526.62-13.75 525.5-12.7 524.57-11.05 523.65-9.4 522.97-7.6 522.3-5.8 521.9-4.25L521.9-4.25 521.9-3.7Q521.9-1.85 520.87-0.65 519.85 0.55 518.1 0.55ZM581.35 0.65L581.35 0.65Q578.35 0.65 576.53-1.23 574.7-3.1 574.7-6.6L574.7-6.6Q574.7-9.1 575.68-11.58 576.65-14.05 578.5-16.05 580.35-18.05 582.95-19.25 585.55-20.45 588.8-20.45L588.8-20.45Q591.8-20.45 593.93-19.43 596.05-18.4 596.05-16.65L596.05-16.65Q596.05-16.2 595.95-15.48 595.85-14.75 595.7-14.3L595.7-14.3Q595.55-13.9 595.28-13.58 595-13.25 594.55-13.25L594.55-13.25Q594.35-13.25 593.8-13.4L593.8-13.4Q593.6-12.35 593.5-11.35 593.4-10.35 593.4-9.35L593.4-9.35Q593.4-7.45 593.98-5.98 594.55-4.5 596.25-4.15L596.25-4.15Q596.7-4.05 596.98-3.85 597.25-3.65 597.25-3L597.25-3Q597.25-2.45 596.98-1.6 596.7-0.75 595.93-0.08 595.15 0.6 593.7 0.6L593.7 0.6Q591.75 0.6 590.7-0.83 589.65-2.25 589.65-4.9L589.65-4.9Q588.3-2.45 586.23-0.9 584.15 0.65 581.35 0.65ZM582.95-4.55L582.95-4.55Q584.95-4.55 586.48-5.8 588-7.05 588.85-8.95L588.85-8.95Q589.4-10.15 589.7-11.58 590-13 590.1-14.4L590.1-14.4Q589.25-14.8 588.15-15.05 587.05-15.3 585.85-15.3L585.85-15.3Q582.8-15.3 580.83-13.5 578.85-11.7 578.85-9L578.85-9Q578.85-7 579.95-5.78 581.05-4.55 582.95-4.55ZM628.16 0.65L628.16 0.65Q625.16 0.65 623.44-1.35 621.71-3.35 621.71-6.8L621.71-6.8Q621.71-9.35 622.54-11.8 623.36-14.25 624.86-16.2 626.36-18.15 628.36-19.3 630.36-20.45 632.71-20.45L632.71-20.45Q634.21-20.45 635.39-20 636.56-19.55 637.46-18.85L637.46-18.85Q637.41-22.25 637.11-24.95 636.81-27.65 635.66-29.95L635.66-29.95Q635.46-30.35 635.34-30.68 635.21-31 635.21-31.3L635.21-31.3Q635.21-32 635.79-32.6 636.36-33.2 637.21-33.6 638.06-34 638.81-34L638.81-34Q640.16-34 640.84-32.83 641.51-31.65 641.71-29.63 641.91-27.6 641.91-25L641.91-25Q641.91-21.2 641.56-18.15 641.21-15.1 640.91-12.8L640.91-12.8Q640.71-11.3 640.56-10.2 640.41-9.1 640.41-8.4L640.41-8.4Q640.41-4.85 643.46-4.2L643.46-4.2Q644.26-4.05 644.26-3.15L644.26-3.15Q644.26-2.6 643.94-1.75 643.61-0.9 642.76-0.23 641.91 0.45 640.31 0.45L640.31 0.45Q638.16 0.45 637.41-1 636.66-2.45 636.66-5.4L636.66-5.4Q635.26-2.85 633.11-1.1 630.96 0.65 628.16 0.65ZM629.71-4.7L629.71-4.7Q631.11-4.7 632.51-5.6 633.91-6.5 635.01-8.05L635.01-8.05Q635.66-9 636.19-10.23 636.71-11.45 637.16-12.7L637.16-12.7Q634.61-15 631.51-15L631.51-15Q628.81-15 627.21-13.38 625.61-11.75 625.61-9.35L625.61-9.35Q625.61-7.3 626.81-6 628.01-4.7 629.71-4.7ZM676.92 0.65L676.92 0.65Q673.12 0.65 670.99-1.53 668.87-3.7 668.87-7.6L668.87-7.6Q668.87-11.15 670.42-14.05 671.97-16.95 674.59-18.68 677.22-20.4 680.37-20.4L680.37-20.4Q683.37-20.4 685.17-18.93 686.97-17.45 686.97-15L686.97-15Q686.97-13.05 685.77-11.4 684.57-9.75 682.57-8.78 680.57-7.8 678.12-7.8L678.12-7.8Q675.12-7.8 673.22-9.15L673.22-9.15Q673.27-6.85 674.79-5.45 676.32-4.05 678.72-4.05L678.72-4.05Q680.17-4.05 681.69-4.58 683.22-5.1 684.32-6L684.32-6Q685.02-6.6 685.62-6.6L685.62-6.6Q686.12-6.6 686.44-6.28 686.77-5.95 686.77-5.45L686.77-5.45Q686.77-4.35 684.87-2.55L684.87-2.55Q681.52 0.65 676.92 0.65ZM677.67-11.1L677.67-11.1Q679.47-11.1 680.67-11.85 681.87-12.6 681.87-13.75L681.87-13.75Q681.87-14.7 681.07-15.23 680.27-15.75 678.87-15.75L678.87-15.75Q677.02-15.75 675.64-14.78 674.27-13.8 673.67-12.05L673.67-12.05Q674.37-11.6 675.47-11.35 676.57-11.1 677.67-11.1Z" opacity="1" transform="matrix(1,0,0,1,0,0)" fill="black" class="slogan-text-1" id="SvgjsPath1652" stroke-width="5" stroke="black" stroke-linejoin="round"></path></svg></g></svg></g></svg></g></svg></g><g transform="matrix(1,0,0,1,400.7623413154379,0)"><svg viewBox="0 0 139.40488703802157 139.40488703802157" height="139.40488703802157" width="139.40488703802157"><g><svg xmlns="http://www.w3.org/2000/svg" xmlns:xlink="http://www.w3.org/1999/xlink" version="1.1" x="0" y="0" viewBox="5 5 90 90" enable-background="new 0 0 100 100" xml:space="preserve" height="139.40488703802157" width="139.40488703802157" class="icon-icon-0" data-fill-palette-color="accent" id="SvgjsSvg1651"><path fill="black" d="M89.66 21.865H74.659A5 5 0 0 0 69.66 26.865 4.997 4.997 0 0 0 74.659 31.865H77.591L71.928 37.528C66.723 42.733 60.785 44.955 52.071 44.956L39.873 44.965C28.414 44.966 17.884 50.387 10.723 57.548L6.805 61.466A5 5 0 0 0 13.876 68.536L17.793 64.619C22.999 59.413 31.163 54.966 39.877 54.965L52.076 54.956C63.534 54.954 71.839 51.761 79 44.6L84.661 38.938V41.867A5 5 0 1 0 94.661 41.867V26.865A5 5 0 0 0 89.66 21.865" stroke-width="5" stroke="black" stroke-linejoin="round"></path><path fill="black" d="M90 66H40.313A14.46 14.46 0 0 0 30.06 70.247C27.593 72.715 8.881 89.289 6.559 91.35 4.526 93.202 4.765 94.886 7.515 94.886H52.951A5 5 0 0 0 54 95H90A5 5 0 0 0 95 90V71A5 5 0 0 0 90 66" stroke-width="5" stroke="black" stroke-linejoin="round"></path><path fill="black" d="M10 34H36.687C40.691 34 44.316 32.377 46.94 29.753 49.408 27.285 68.12 10.711 70.442 8.65 72.475 6.798 72.235 5.114 69.485 5.114L10 5A5 5 0 0 0 5 10V29A5 5 0 0 0 10 34" stroke-width="5" stroke="black" stroke-linejoin="round"></path></svg></g></svg></g></svg></g></svg></g></svg></g></mask><g mask="url(#066138fb-904d-4c49-bfff-7d7ecbf63bec)"><g><path transform="translate(-7.5672,234.8308) scale(5.71147,5.71147)" d="M32.2-12.7v0-24.9l-4.05-0.5v-1.85c1.833 0.133 3.517 0.2 5.05 0.2v0c1.267 0 2.967-0.05 5.1-0.15v0 1.8l-3.15 0.6c-0.133 1.267-0.2 3.217-0.2 5.85v0 18.65c-0.133 4.733-1.25 8.25-3.35 10.55-2.1 2.3-5.783 3.45-11.05 3.45v0c-9.933 0-14.9-4.517-14.9-13.55v0-25.05l-4.05-0.5c-0.133-0.5-0.133-1.117 0-1.85v0c1.833 0.133 4.117 0.2 6.85 0.2v0c2.433 0 4.733-0.05 6.9-0.15v0c0.2 0.6 0.2 1.2 0 1.8v0l-4.15 0.6c-0.133 1.267-0.2 3.217-0.2 5.85v0 19.1c0 3.733 0.867 6.39 2.6 7.97 1.733 1.587 4.6 2.38 8.6 2.38v0c3.767 0 6.377-0.823 7.83-2.47 1.447-1.653 2.17-4.33 2.17-8.03zM47.35-8.15v0-29.45l-4.05-0.55c-0.2-0.6-0.2-1.2 0-1.8v0l6.85 0.15h20.2l0.05 11.6c-0.733 0.133-1.35 0.133-1.85 0v0l-2.35-9.05h-13.5v14.75l8-0.15 1.15-4.9c0.5-0.133 1.117-0.133 1.85 0v0c-0.133 1.867-0.2 4.017-0.2 6.45v0c0 2.233 0.05 4.4 0.15 6.5v0c-0.6 0.2-1.2 0.2-1.8 0v0l-1.1-5.2-8.05-0.15v17.75l4.55 0.5c0.133 0.5 0.133 1.117 0 1.85v0c-2.1-0.1-4.467-0.15-7.1-0.15v0c-1.967 0-4.35 0.033-7.15 0.1v0c-0.2-0.6-0.2-1.2 0-1.8v0l4.15-0.6c0.133-1.267 0.2-3.217 0.2-5.85z" fill="#dee0e4" fill-rule="nonzero" stroke="none" stroke-width="1" stroke-linecap="butt" stroke-linejoin="miter" stroke-miterlimit="10" stroke-dasharray="" stroke-dashoffset="0" font-family="none" font-weight="none" font-size="none" text-anchor="none" style="mix-blend-mode: normal" data-fill-palette-color="tertiary"></path></g></g><g transform="matrix(1,0,0,1,0,72.56263783962935)"><svg viewBox="0 0 395.52 102.0747243207413" height="102.0747243207413" width="395.52"><g><svg viewBox="0 0 395.52 102.0747243207413" height="102.0747243207413" width="395.52"><g><svg viewBox="0 0 540.1672283534594 139.40488703802157" height="102.0747243207413" width="395.52"><g transform="matrix(1,0,0,1,0,32.06369612770531)"><svg viewBox="0 0 395.52 75.27749478261094" height="75.27749478261094" width="395.52"><g id="textblocktransform"><svg viewBox="0 0 395.52 75.27749478261094" height="75.27749478261094" width="395.52" id="textblock"><g><svg viewBox="0 0 395.52 40.21728052088985" height="40.21728052088985" width="395.52"><g transform="matrix(1,0,0,1,0,0)"><svg width="395.52" viewBox="-1.5000000000000002 -43.8 461.71 47.849999999999994" height="40.21728052088985" data-palette-color="#dee0e4"><path d="M32.2-12.7L32.2-12.7 32.2-37.6 28.15-38.1 28.15-39.95Q30.9-39.75 33.2-39.75L33.2-39.75Q35.1-39.75 38.3-39.9L38.3-39.9 38.3-38.1 35.15-37.5Q34.95-35.6 34.95-31.65L34.95-31.65 34.95-13Q34.75-5.9 31.6-2.45 28.45 1 20.55 1L20.55 1Q5.65 1 5.65-12.55L5.65-12.55 5.65-37.6 1.6-38.1Q1.4-38.85 1.6-39.95L1.6-39.95Q4.35-39.75 8.45-39.75L8.45-39.75Q12.1-39.75 15.35-39.9L15.35-39.9Q15.65-39 15.35-38.1L15.35-38.1 11.2-37.5Q11-35.6 11-31.65L11-31.65 11-12.55Q11-6.95 13.6-4.58 16.2-2.2 22.2-2.2L22.2-2.2Q27.85-2.2 30.03-4.67 32.2-7.15 32.2-12.7ZM50.7-26.7L50.7-26.7 50.6-21.55Q51.85-23.85 54.07-25.78 56.3-27.7 58.3-27.7L58.3-27.7Q59.85-27.7 61.05-27.35L61.05-27.35Q61.45-26.7 61.45-25.65L61.45-25.65Q61.45-24 60.75-22.35L60.75-22.35Q58.95-22.85 57.3-22.85L57.3-22.85Q53.2-22.85 50.55-18.85L50.55-18.85 50.45-10.1 50.45-2.55 56-1.8Q56.2-1 56 0.2L56 0.2Q52.85 0.05 48.8 0.05L48.8 0.05Q45.75 0.05 41.55 0.15L41.55 0.15Q41.25-0.8 41.55-1.8L41.55-1.8 45.5-2.35Q45.7-5.1 45.7-8.7L45.7-8.7 45.7-22.4Q45.7-23.4 45.55-24.25L45.55-24.25 41.6-24.75Q41.4-25.5 41.6-26.65L41.6-26.65Q45.05-26.9 50.2-27.7L50.2-27.7Q50.65-27.2 50.7-26.7ZM70.4-31.7L70.4-23.55Q74.55-27.7 79.45-27.7L79.45-27.7Q84.3-27.7 87.02-24.05 89.75-20.4 89.75-14.2L89.75-14.2Q89.75-7.15 85.95-3.08 82.15 1 76.5 1L76.5 1Q71.6 1 68.8-2.5L68.8-2.5 67.75 0.9Q66.8 1.05 66.15 0.9L66.15 0.9 65.65-4.6 65.65-37.35 61.55-37.85Q61.35-38.6 61.55-39.75L61.55-39.75Q65-40 70.15-40.8L70.15-40.8Q70.6-40.3 70.65-39.8L70.65-39.8Q70.4-38.5 70.4-31.7L70.4-31.7ZM77.6-1.75L77.6-1.75Q80.7-1.75 82.72-4.63 84.75-7.5 84.75-12.75L84.75-12.75Q84.75-13.8 84.7-14.35L84.7-14.35Q84.7-19.3 82.72-22 80.75-24.7 77.75-24.7L77.75-24.7Q76-24.7 73.95-23.58 71.9-22.45 70.4-20.5L70.4-20.5 70.4-5.2Q72.1-3.25 73.65-2.5 75.2-1.75 77.6-1.75ZM98.69-6.65L98.69-6.65Q98.69-4.05 99.64-2.98 100.59-1.9 102.64-1.9L102.64-1.9Q104.14-1.9 105.97-2.83 107.79-3.75 109.34-5.5L109.34-5.5 109.34-13.3Q104.19-13 101.44-11.48 98.69-9.95 98.69-6.65ZM109.34-15.1L109.34-15.1 109.34-17.65Q109.34-21.9 108.37-23.83 107.39-25.75 105.14-25.75L105.14-25.75Q102.84-25.75 101.44-24.28 100.04-22.8 99.54-19.25L99.54-19.25Q97.94-18.9 97.19-18.9L97.19-18.9Q95.24-18.9 94.89-20.3L94.89-20.3Q94.89-23.7 97.84-25.7 100.79-27.7 105.19-27.7L105.19-27.7Q110.04-27.7 112.07-25.73 114.09-23.75 114.09-18.65L114.09-18.65 114.09-4.55Q114.09-3.3 114.24-2.4L114.24-2.4 118.19-1.9Q118.39-1.15 118.19 0L118.19 0Q114.64 0.15 110.64 0.7L110.64 0.7Q110.24 0.3 110.14-0.3L110.14-0.3 109.89-3.75Q105.74 1 100.64 1L100.64 1Q97.49 1 95.72-0.8 93.94-2.6 93.94-5.65L93.94-5.65Q93.94-10.25 98.12-12.6 102.29-14.95 109.34-15.1ZM140.94-8.7L140.94-17.85Q140.94-21.7 139.92-23.25 138.89-24.8 136.49-24.8L136.49-24.8Q132.79-24.8 129.04-19.25L129.04-19.25 129.04-2.55 133.09-1.8Q133.29-1 133.09 0.2L133.09 0.2Q129.94 0.05 126.64 0.05L126.64 0.05Q124.34 0.05 120.14 0.15L120.14 0.15Q119.84-0.8 120.14-1.8L120.14-1.8 124.09-2.35Q124.29-5.1 124.29-8.7L124.29-8.7 124.29-22.4Q124.29-23.4 124.14-24.25L124.14-24.25 120.19-24.75Q119.99-25.5 120.19-26.65L120.19-26.65Q123.64-26.9 128.79-27.7L128.79-27.7Q129.24-27.2 129.29-26.7L129.29-26.7Q129.04-25.4 129.04-22.25L129.04-22.25Q132.99-27.7 137.94-27.7L137.94-27.7Q145.69-27.7 145.69-20.35L145.69-20.35 145.69-2.55 149.74-1.8Q149.94-1 149.74 0.2L149.74 0.2Q146.59 0.05 143.29 0.05L143.29 0.05Q140.99 0.05 136.79 0.15L136.79 0.15Q136.49-0.8 136.79-1.8L136.79-1.8 140.74-2.35Q140.94-5.1 140.94-8.7L140.94-8.7ZM169.44-8.15L169.44-8.15 169.44-37.6 165.39-38.15Q165.09-39.05 165.39-39.95L165.39-39.95 172.24-39.8 192.44-39.8 192.49-28.2Q191.39-28 190.64-28.2L190.64-28.2 188.29-37.25 174.79-37.25 174.79-22.5 182.79-22.65 183.94-27.55Q184.69-27.75 185.79-27.55L185.79-27.55Q185.59-24.75 185.59-21.1L185.59-21.1Q185.59-17.75 185.74-14.6L185.74-14.6Q184.84-14.3 183.94-14.6L183.94-14.6 182.84-19.8 174.79-19.95 174.79-2.2 179.34-1.7Q179.54-0.95 179.34 0.15L179.34 0.15Q176.19 0 172.24 0L172.24 0Q169.29 0 165.09 0.1L165.09 0.1Q164.79-0.8 165.09-1.7L165.09-1.7 169.24-2.3Q169.44-4.2 169.44-8.15ZM193.58-13.3L193.58-13.3Q193.58-16.3 194.46-18.93 195.33-21.55 196.98-23.5 198.63-25.45 200.96-26.58 203.28-27.7 206.18-27.7L206.18-27.7Q209.03-27.7 211.38-26.58 213.73-25.45 215.41-23.5 217.08-21.55 217.98-18.93 218.88-16.3 218.88-13.3L218.88-13.3Q218.88-10.2 217.96-7.6 217.03-5 215.36-3.08 213.68-1.15 211.33-0.08 208.98 1 206.18 1L206.18 1Q203.23 1 200.91-0.05 198.58-1.1 196.96-3 195.33-4.9 194.46-7.53 193.58-10.15 193.58-13.3ZM200.88-22.5L200.88-22.5Q198.73-19.45 198.73-13.3L198.73-13.3Q198.73-10.25 199.31-7.95 199.88-5.65 200.88-4.13 201.88-2.6 203.23-1.85 204.58-1.1 206.18-1.1L206.18-1.1Q207.73-1.1 209.13-1.85 210.53-2.6 211.53-4.13 212.53-5.65 213.13-7.95 213.73-10.25 213.73-13.3L213.73-13.3Q213.73-16.35 213.13-18.68 212.53-21 211.51-22.53 210.48-24.05 209.11-24.83 207.73-25.6 206.18-25.6L206.18-25.6Q203.08-25.6 200.88-22.5ZM246.83-26.7L246.83-26.7 246.83-7.1Q246.83-3.75 246.98-2.4L246.98-2.4 250.93-1.9Q251.08-1.1 250.93 0L250.93 0Q247.28 0.15 243.33 0.7L243.33 0.7Q242.98 0.35 242.83-0.25L242.83-0.25 242.58-4.7Q240.48-2 238.26-0.5 236.03 1 233.03 1L233.03 1Q229.98 1 227.91-0.55 225.83-2.1 225.83-5.85L225.83-5.85 225.83-16.95Q225.83-22.65 225.68-24.25L225.68-24.25 221.73-24.75Q221.53-25.5 221.73-26.65L221.73-26.65Q225.18-26.9 230.33-27.7L230.33-27.7Q230.78-27.2 230.83-26.7L230.83-26.7Q230.58-25.4 230.58-8.35L230.58-8.35Q230.58-4.85 231.41-3.38 232.23-1.9 234.48-1.9L234.48-1.9Q238.68-1.9 242.08-6.9L242.08-6.9 242.08-17Q242.08-22.65 241.93-24.25L241.93-24.25 237.98-24.75Q237.78-25.5 237.98-26.65L237.98-26.65Q240.98-26.85 246.33-27.7L246.33-27.7Q246.78-27.2 246.83-26.7ZM274.08-8.7L274.08-17.85Q274.08-21.7 273.05-23.25 272.03-24.8 269.63-24.8L269.63-24.8Q265.93-24.8 262.18-19.25L262.18-19.25 262.18-2.55 266.23-1.8Q266.43-1 266.23 0.2L266.23 0.2Q263.08 0.05 259.78 0.05L259.78 0.05Q257.48 0.05 253.28 0.15L253.28 0.15Q252.98-0.8 253.28-1.8L253.28-1.8 257.23-2.35Q257.43-5.1 257.43-8.7L257.43-8.7 257.43-22.4Q257.43-23.4 257.28-24.25L257.28-24.25 253.33-24.75Q253.13-25.5 253.33-26.65L253.33-26.65Q256.78-26.9 261.93-27.7L261.93-27.7Q262.38-27.2 262.43-26.7L262.43-26.7Q262.18-25.4 262.18-22.25L262.18-22.25Q266.13-27.7 271.08-27.7L271.08-27.7Q278.83-27.7 278.83-20.35L278.83-20.35 278.83-2.55 282.88-1.8Q283.08-1 282.88 0.2L282.88 0.2Q279.73 0.05 276.43 0.05L276.43 0.05Q274.13 0.05 269.93 0.15L269.93 0.15Q269.63-0.8 269.93-1.8L269.93-1.8 273.88-2.35Q274.08-5.1 274.08-8.7L274.08-8.7ZM309.93-31.7L309.93-7.1Q309.93-3.75 310.08-2.4L310.08-2.4 314.03-1.9Q314.18-1.1 314.03 0L314.03 0Q310.38 0.15 306.43 0.7L306.43 0.7Q306.08 0.35 305.93-0.25L305.93-0.25 305.68-3.45Q303.93-1.4 301.33-0.18 298.73 1.05 295.88 1.05L295.88 1.05Q291.53 1.05 288.68-2.58 285.83-6.2 285.83-12.25L285.83-12.25Q285.83-19.25 289.55-23.48 293.28-27.7 298.48-27.7L298.48-27.7Q302.58-27.7 305.18-25.75L305.18-25.75 305.18-32.45Q305.18-35.75 305.03-37.35L305.03-37.35 301.08-37.85Q300.88-38.6 301.08-39.75L301.08-39.75Q304.53-40 309.68-40.8L309.68-40.8Q310.13-40.3 310.18-39.8L310.18-39.8Q309.93-38.5 309.93-31.7L309.93-31.7ZM298.08-25L298.08-25Q294.83-25 292.88-21.58 290.93-18.15 290.93-12.1L290.93-12.1Q290.93-7.15 292.75-4.55 294.58-1.95 297.58-1.95L297.58-1.95Q299.38-1.95 301.53-3.08 303.68-4.2 305.18-6.2L305.18-6.2 305.18-22.2Q302.73-25 298.08-25ZM321.62-6.65L321.62-6.65Q321.62-4.05 322.57-2.98 323.52-1.9 325.57-1.9L325.57-1.9Q327.07-1.9 328.9-2.83 330.72-3.75 332.27-5.5L332.27-5.5 332.27-13.3Q327.12-13 324.37-11.48 321.62-9.95 321.62-6.65ZM332.27-15.1L332.27-15.1 332.27-17.65Q332.27-21.9 331.3-23.83 330.32-25.75 328.07-25.75L328.07-25.75Q325.77-25.75 324.37-24.28 322.97-22.8 322.47-19.25L322.47-19.25Q320.87-18.9 320.12-18.9L320.12-18.9Q318.17-18.9 317.82-20.3L317.82-20.3Q317.82-23.7 320.77-25.7 323.72-27.7 328.12-27.7L328.12-27.7Q332.97-27.7 335-25.73 337.02-23.75 337.02-18.65L337.02-18.65 337.02-4.55Q337.02-3.3 337.17-2.4L337.17-2.4 341.12-1.9Q341.32-1.15 341.12 0L341.12 0Q337.57 0.15 333.57 0.7L333.57 0.7Q333.17 0.3 333.07-0.3L333.07-0.3 332.82-3.75Q328.67 1 323.57 1L323.57 1Q320.42 1 318.65-0.8 316.87-2.6 316.87-5.65L316.87-5.65Q316.87-10.25 321.05-12.6 325.22-14.95 332.27-15.1ZM351.07-32.7L351.07-32.7 351.07-25.55 358.12-25.55Q358.22-24.95 358.22-24.65L358.22-24.65Q358.22-24.2 358.12-23.6L358.12-23.6 351.07-22.55 351.07-8.8Q351.07-5.1 351.75-3.58 352.42-2.05 353.87-2.05L353.87-2.05Q355.17-2.05 357.92-3.1L357.92-3.1Q358.42-2.65 358.62-1.4L358.62-1.4Q357.12-0.5 356.35-0.08 355.57 0.35 354.4 0.68 353.22 1 351.92 1L351.92 1Q349.42 1 347.85-0.93 346.27-2.85 346.27-6.8L346.27-6.8 346.27-23.15 342.77-23.6Q342.67-24.1 342.67-24.45L342.67-24.45Q342.67-24.85 342.77-25.55L342.77-25.55Q344.17-25.8 345.2-26.43 346.22-27.05 346.92-28.18 347.62-29.3 348-30.18 348.37-31.05 348.92-32.7L348.92-32.7Q349.37-32.85 350.02-32.85L350.02-32.85Q350.62-32.85 351.07-32.7ZM369.77-18.6L369.77-18.6 369.77-2.55 373.82-1.8Q373.87-1.55 373.89-1.35 373.92-1.15 373.92-0.9L373.92-0.9Q373.92-0.65 373.89-0.38 373.87-0.1 373.82 0.2L373.82 0.2Q370.67 0.05 367.37 0.05L367.37 0.05Q366.22 0.05 364.59 0.08 362.97 0.1 360.87 0.15L360.87 0.15Q360.72-0.3 360.72-0.8L360.72-0.8Q360.72-1.25 360.87-1.8L360.87-1.8 364.82-2.35Q364.92-3.75 364.97-5.33 365.02-6.9 365.02-8.7L365.02-8.7 365.02-19.35Q365.02-22.65 364.87-24.25L364.87-24.25 360.92-24.75Q360.82-25 360.82-25.6L360.82-25.6Q360.82-25.85 360.82-26.1 360.82-26.35 360.92-26.65L360.92-26.65Q364.32-26.85 369.52-27.7L369.52-27.7Q369.97-27.2 370.02-26.7L370.02-26.7Q369.77-25.3 369.77-18.6ZM362.47-36.45L362.47-36.45Q362.37-36.7 362.37-36.98 362.37-37.25 362.37-37.5L362.37-37.5Q362.37-38.85 363.49-39.68 364.62-40.5 366.27-40.5L366.27-40.5Q367.82-40.5 368.79-39.58 369.77-38.65 369.77-37.05L369.77-37.05Q369.77-35.75 368.64-34.95 367.52-34.15 365.77-34.15L365.77-34.15Q364.57-34.15 363.64-34.75 362.72-35.35 362.47-36.45ZM377.02-13.3L377.02-13.3Q377.02-16.3 377.89-18.93 378.77-21.55 380.42-23.5 382.07-25.45 384.39-26.58 386.72-27.7 389.62-27.7L389.62-27.7Q392.47-27.7 394.82-26.58 397.17-25.45 398.84-23.5 400.52-21.55 401.42-18.93 402.32-16.3 402.32-13.3L402.32-13.3Q402.32-10.2 401.39-7.6 400.47-5 398.79-3.08 397.12-1.15 394.77-0.08 392.42 1 389.62 1L389.62 1Q386.67 1 384.34-0.05 382.02-1.1 380.39-3 378.77-4.9 377.89-7.53 377.02-10.15 377.02-13.3ZM384.32-22.5L384.32-22.5Q382.17-19.45 382.17-13.3L382.17-13.3Q382.17-10.25 382.74-7.95 383.32-5.65 384.32-4.13 385.32-2.6 386.67-1.85 388.02-1.1 389.62-1.1L389.62-1.1Q391.17-1.1 392.57-1.85 393.97-2.6 394.97-4.13 395.97-5.65 396.57-7.95 397.17-10.25 397.17-13.3L397.17-13.3Q397.17-16.35 396.57-18.68 395.97-21 394.94-22.53 393.92-24.05 392.54-24.83 391.17-25.6 389.62-25.6L389.62-25.6Q386.52-25.6 384.32-22.5ZM426.76-8.7L426.76-17.85Q426.76-21.7 425.74-23.25 424.71-24.8 422.31-24.8L422.31-24.8Q418.61-24.8 414.86-19.25L414.86-19.25 414.86-2.55 418.91-1.8Q419.11-1 418.91 0.2L418.91 0.2Q415.76 0.05 412.46 0.05L412.46 0.05Q410.16 0.05 405.96 0.15L405.96 0.15Q405.66-0.8 405.96-1.8L405.96-1.8 409.91-2.35Q410.11-5.1 410.11-8.7L410.11-8.7 410.11-22.4Q410.11-23.4 409.96-24.25L409.96-24.25 406.01-24.75Q405.81-25.5 406.01-26.65L406.01-26.65Q409.46-26.9 414.61-27.7L414.61-27.7Q415.06-27.2 415.11-26.7L415.11-26.7Q414.86-25.4 414.86-22.25L414.86-22.25Q418.81-27.7 423.76-27.7L423.76-27.7Q431.51-27.7 431.51-20.35L431.51-20.35 431.51-2.55 435.56-1.8Q435.76-1 435.56 0.2L435.56 0.2Q432.41 0.05 429.11 0.05L429.11 0.05Q426.81 0.05 422.61 0.15L422.61 0.15Q422.31-0.8 422.61-1.8L422.61-1.8 426.56-2.35Q426.76-5.1 426.76-8.7L426.76-8.7ZM447.41-1.2L447.41-1.2Q450.11-1.2 451.41-2.45 452.71-3.7 452.71-5.35L452.71-5.35Q452.71-6.3 452.41-7.1 452.11-7.9 451.44-8.65 450.76-9.4 449.66-10.13 448.56-10.85 446.91-11.7L446.91-11.7Q444.86-12.75 443.39-13.7 441.91-14.65 440.96-15.7 440.01-16.75 439.54-17.95 439.06-19.15 439.06-20.65L439.06-20.65Q439.06-22.45 439.71-23.78 440.36-25.1 441.54-25.98 442.71-26.85 444.31-27.28 445.91-27.7 447.86-27.7L447.86-27.7Q451.76-27.7 455.46-25.8L455.46-25.8 455.46-19.4 453.11-19.4 452.01-24.8Q449.81-25.85 447.36-25.85L447.36-25.85Q443.26-25.85 443.26-22.5L443.26-22.5Q443.26-20.7 444.61-19.2 445.96-17.7 448.96-16.2L448.96-16.2Q451.01-15.15 452.56-14.2 454.11-13.25 455.14-12.2 456.16-11.15 456.69-9.93 457.21-8.7 457.21-7.15L457.21-7.15Q457.21-5.4 456.46-3.9 455.71-2.4 454.36-1.33 453.01-0.25 451.11 0.38 449.21 1 446.91 1L446.91 1Q442.46 1 438.56-0.9L438.56-0.9 438.56-7.3 440.91-7.3 442.01-2.35Q444.56-1.2 447.41-1.2Z" opacity="1" transform="matrix(1,0,0,1,0,0)" fill="#dee0e4" class="wordmark-text-0" data-fill-palette-color="primary" id="text-0"></path></svg></g></svg></g><g transform="matrix(1,0,0,1,2.5,45.45962183632773)"><svg viewBox="0 0 390.52 29.81787294628323" height="29.81787294628323" width="390.52"><g transform="matrix(1,0,0,1,0,0)"><svg width="390.52" viewBox="-4.7 -37 694.6700000000001 53.800000000000004" height="29.81787294628323" data-palette-color="#000000"><path d="M3.3 13.8L3.3 13.8Q1.25 13.8-0.23 12.7-1.7 11.6-1.7 9.75L-1.7 9.75Q-1.7 8.3-0.83 7.28 0.05 6.25 1.35 6.25L1.35 6.25Q1.95 6.25 2.2 6.45 2.45 6.65 2.6 6.9L2.6 6.9Q3 7.55 3.53 8.03 4.05 8.5 4.95 8.5L4.95 8.5Q6.15 8.5 7.28 7.65 8.4 6.8 9.35 5.7L9.35 5.7Q10.2 4.75 11.4 2.98 12.6 1.2 13.8-1.05L13.8-1.05Q12.7-0.1 11.75 0.33 10.8 0.75 9.95 0.75L9.95 0.75Q8.9 0.75 7.9-0.03 6.9-0.8 6.65-2.95L6.65-2.95Q6.5-4.6 6.08-6.6 5.65-8.6 5.03-10.48 4.4-12.35 3.5-13.65L3.5-13.65Q3.15-14.25 2.7-14.55 2.25-14.85 1.4-14.95L1.4-14.95Q0.8-15 0.63-15.3 0.45-15.6 0.45-16.25L0.45-16.25Q0.45-18.05 1.45-19.15 2.45-20.25 4.15-20.25L4.15-20.25Q6.2-20.25 7.1-18.68 8-17.1 8.65-14.85L8.65-14.85Q8.9-13.95 9.18-12.48 9.45-11 9.68-9.3 9.9-7.6 10-6.05L10-6.05Q10.05-4.95 11.25-4.95L11.25-4.95Q12.85-4.95 14.3-5.95 15.75-6.95 16.68-8.55 17.6-10.15 17.6-11.9L17.6-11.9Q17.6-12.9 17.35-13.7 17.1-14.5 16.5-15.1L16.5-15.1Q16-15.7 15.7-16.07 15.4-16.45 15.4-16.95L15.4-16.95Q15.4-17.8 16.2-18.55 17-19.3 18.13-19.8 19.25-20.3 20.1-20.3L20.1-20.3Q21.6-20.3 22.1-18.88 22.6-17.45 22.35-15.75L22.35-15.75Q22.05-13.4 21.15-10.2 20.25-7 18.82-3.5 17.4 0 15.58 3.28 13.75 6.55 11.7 9L11.7 9Q9.95 11.15 7.8 12.48 5.65 13.8 3.3 13.8ZM55.51 0.65L55.51 0.65Q52.06 0.65 49.98-1.23 47.91-3.1 47.91-6.75L47.91-6.75Q47.91-8.45 48.38-10.05 48.86-11.65 49.66-13.05L49.66-13.05Q48.86-12.55 48.46-12.55L48.46-12.55Q47.86-12.55 47.63-13.23 47.41-13.9 47.41-14.55L47.41-14.55Q47.41-15.7 47.88-16.38 48.36-17.05 48.81-17.4L48.81-17.4Q49.86-18.3 52.11-19.38 54.36-20.45 57.51-20.45L57.51-20.45Q61.81-20.45 64.18-18.05 66.56-15.65 66.56-11.35L66.56-11.35Q66.56-8 65.16-5.28 63.76-2.55 61.28-0.95 58.81 0.65 55.51 0.65ZM57.06-4.45L57.06-4.45Q59.56-4.45 61.28-6.03 63.01-7.6 63.01-10.2L63.01-10.2Q63.01-12.9 61.26-14.05 59.51-15.2 57.21-15.2L57.21-15.2Q56.16-15.2 55.31-15 54.46-14.8 53.71-14.5L53.71-14.5Q53.01-13.5 52.46-12.25 51.91-11 51.91-9.5L51.91-9.5Q51.91-7 53.41-5.73 54.91-4.45 57.06-4.45ZM98.22 0.65L98.22 0.65Q95.72 0.65 94.34-0.8 92.97-2.25 92.97-5L92.97-5Q92.97-6.95 93.52-9L93.52-9Q93.77-9.85 93.92-10.7 94.07-11.55 94.07-12.4L94.07-12.4Q94.07-14.6 92.72-15.25L92.72-15.25Q91.42-15.95 91.42-16.75L91.42-16.75Q91.42-17.55 92.09-18.35 92.77-19.15 93.77-19.68 94.77-20.2 95.77-20.2L95.77-20.2Q98.62-20.2 98.62-15.55L98.62-15.55Q98.62-14.05 98.39-12.78 98.17-11.5 97.87-10.35L97.87-10.35Q97.67-9.55 97.54-8.75 97.42-7.95 97.42-7.35L97.42-7.35Q97.42-4.85 99.87-4.85L99.87-4.85Q102.17-4.85 104.17-7.3 106.17-9.75 107.47-14.15L107.47-14.15 107.42-15.1Q107.32-17.6 108.29-18.9 109.27-20.2 111.17-20.2L111.17-20.2Q112.82-20.2 112.82-19.15L112.82-19.15Q112.82-18.8 112.69-18.25 112.57-17.7 112.32-16.95L112.32-16.95Q111.82-15.1 111.47-13.03 111.12-10.95 111.12-9.2L111.12-9.2Q111.12-7.25 111.72-5.98 112.32-4.7 113.97-4.25L113.97-4.25Q114.42-4.2 114.69-3.98 114.97-3.75 114.97-3.05L114.97-3.05Q114.97-1.85 113.97-0.7 112.97 0.45 111.07 0.45L111.07 0.45Q107.42 0.45 107.42-4.7L107.42-4.7Q107.42-5.6 107.57-7.4L107.57-7.4 107.47-7.45Q104.32 0.65 98.22 0.65ZM182.03 0.65L182.03 0.65Q180.18 0.65 178.58 0.1 176.98-0.45 175.98-1.45 174.98-2.45 174.98-3.85L174.98-3.85Q174.98-4.6 175.36-5.28 175.73-5.95 176.58-5.95L176.58-5.95Q177.03-5.95 177.53-5.7L177.53-5.7Q178.43-5.2 179.83-4.78 181.23-4.35 182.78-4.35L182.78-4.35Q184.53-4.35 185.88-4.85 187.23-5.35 187.23-6.25L187.23-6.25Q187.23-6.95 186.21-7.25 185.18-7.55 182.78-7.9L182.78-7.9Q181.13-8.2 179.58-8.6 178.03-9 177.03-9.98 176.03-10.95 176.03-12.85L176.03-12.85Q176.03-14.7 177.06-16.43 178.08-18.15 180.13-19.3 182.18-20.45 185.13-20.45L185.13-20.45Q186.68-20.45 188.13-20.1 189.58-19.75 190.53-19.05 191.48-18.35 191.48-17.3L191.48-17.3Q191.48-16.4 190.86-15.65 190.23-14.9 189.41-14.43 188.58-13.95 188.03-13.95L188.03-13.95Q187.63-13.95 187.08-14.5L187.08-14.5Q186.23-15.2 185.21-15.48 184.18-15.75 183.18-15.75L183.18-15.75Q181.68-15.75 180.76-15.3 179.83-14.85 179.83-14.15L179.83-14.15Q179.83-13.5 180.61-13.1 181.38-12.7 182.53-12.53 183.68-12.35 184.73-12.2L184.73-12.2Q187.63-11.8 189.33-10.83 191.03-9.85 191.03-7.4L191.03-7.4Q191.03-5.5 189.96-3.63 188.88-1.75 186.86-0.55 184.83 0.65 182.03 0.65ZM223.09 0.65L223.09 0.65Q220.09 0.65 218.26-1.23 216.44-3.1 216.44-6.6L216.44-6.6Q216.44-9.1 217.41-11.58 218.39-14.05 220.24-16.05 222.09-18.05 224.69-19.25 227.29-20.45 230.54-20.45L230.54-20.45Q233.54-20.45 235.66-19.43 237.79-18.4 237.79-16.65L237.79-16.65Q237.79-16.2 237.69-15.48 237.59-14.75 237.44-14.3L237.44-14.3Q237.29-13.9 237.01-13.58 236.74-13.25 236.29-13.25L236.29-13.25Q236.09-13.25 235.54-13.4L235.54-13.4Q235.34-12.35 235.24-11.35 235.14-10.35 235.14-9.35L235.14-9.35Q235.14-7.45 235.71-5.98 236.29-4.5 237.99-4.15L237.99-4.15Q238.44-4.05 238.71-3.85 238.99-3.65 238.99-3L238.99-3Q238.99-2.45 238.71-1.6 238.44-0.75 237.66-0.08 236.89 0.6 235.44 0.6L235.44 0.6Q233.49 0.6 232.44-0.83 231.39-2.25 231.39-4.9L231.39-4.9Q230.04-2.45 227.96-0.9 225.89 0.65 223.09 0.65ZM224.69-4.55L224.69-4.55Q226.69-4.55 228.21-5.8 229.74-7.05 230.59-8.95L230.59-8.95Q231.14-10.15 231.44-11.58 231.74-13 231.84-14.4L231.84-14.4Q230.99-14.8 229.89-15.05 228.79-15.3 227.59-15.3L227.59-15.3Q224.54-15.3 222.56-13.5 220.59-11.7 220.59-9L220.59-9Q220.59-7 221.69-5.78 222.79-4.55 224.69-4.55ZM267.85-24.85L267.85-24.85Q266.45-24.9 265.6-25.7 264.75-26.5 264.75-27.95L264.75-27.95Q264.8-29.5 265.8-30.48 266.8-31.45 268.35-31.4L268.35-31.4Q269.8-31.35 270.62-30.55 271.45-29.75 271.4-28.3L271.4-28.3Q271.35-26.8 270.4-25.83 269.45-24.85 267.85-24.85ZM267.9 0.5L267.9 0.5Q266.4 0.5 265.55-0.33 264.7-1.15 264.7-3.15L264.7-3.15Q264.7-4.3 264.92-5.4 265.15-6.5 265.45-7.55L265.45-7.55Q265.8-8.65 266.02-9.8 266.25-10.95 266.25-12.25L266.25-12.25Q266.25-13.15 266-13.98 265.75-14.8 264.9-15.2L264.9-15.2Q264.25-15.55 263.77-15.93 263.3-16.3 263.3-16.9L263.3-16.9Q263.3-17.6 263.95-18.4 264.6-19.2 265.67-19.78 266.75-20.35 267.9-20.35L267.9-20.35Q269.15-20.35 269.72-19.7 270.3-19.05 270.5-18.05 270.7-17.05 270.7-16L270.7-16Q270.7-14.4 270.45-12.88 270.2-11.35 269.95-10.05L269.95-10.05Q269.75-9.1 269.65-8.3 269.55-7.5 269.55-6.8L269.55-6.8Q269.55-5.55 270.15-4.93 270.75-4.3 271.85-3.75L271.85-3.75Q272.3-3.5 272.3-3L272.3-3Q272.3-2.6 271.9-1.75 271.5-0.9 270.52-0.2 269.55 0.5 267.9 0.5ZM303.86 0.65L303.86 0.65Q300.86 0.65 299.13-1.35 297.41-3.35 297.41-6.8L297.41-6.8Q297.41-9.35 298.23-11.8 299.06-14.25 300.56-16.2 302.06-18.15 304.06-19.3 306.06-20.45 308.41-20.45L308.41-20.45Q309.91-20.45 311.08-20 312.26-19.55 313.16-18.85L313.16-18.85Q313.11-22.25 312.81-24.95 312.51-27.65 311.36-29.95L311.36-29.95Q311.16-30.35 311.03-30.68 310.91-31 310.91-31.3L310.91-31.3Q310.91-32 311.48-32.6 312.06-33.2 312.91-33.6 313.76-34 314.51-34L314.51-34Q315.86-34 316.53-32.83 317.21-31.65 317.41-29.63 317.61-27.6 317.61-25L317.61-25Q317.61-21.2 317.26-18.15 316.91-15.1 316.61-12.8L316.61-12.8Q316.41-11.3 316.26-10.2 316.11-9.1 316.11-8.4L316.11-8.4Q316.11-4.85 319.16-4.2L319.16-4.2Q319.96-4.05 319.96-3.15L319.96-3.15Q319.96-2.6 319.63-1.75 319.31-0.9 318.46-0.23 317.61 0.45 316.01 0.45L316.01 0.45Q313.86 0.45 313.11-1 312.36-2.45 312.36-5.4L312.36-5.4Q310.96-2.85 308.81-1.1 306.66 0.65 303.86 0.65ZM305.41-4.7L305.41-4.7Q306.81-4.7 308.21-5.6 309.61-6.5 310.71-8.05L310.71-8.05Q311.36-9 311.88-10.23 312.41-11.45 312.86-12.7L312.86-12.7Q310.31-15 307.21-15L307.21-15Q304.51-15 302.91-13.38 301.31-11.75 301.31-9.35L301.31-9.35Q301.31-7.3 302.51-6 303.71-4.7 305.41-4.7ZM387.67 0.7L387.67 0.7Q386.27 0.7 385.3-0.13 384.32-0.95 384.17-3.2L384.17-3.2Q384.07-4.9 383.75-7 383.42-9.1 382.97-10.95 382.52-12.8 381.92-13.75L381.92-13.75Q381.57-14.3 381.15-14.58 380.72-14.85 379.87-14.95L379.87-14.95Q378.97-15 378.97-16.25L378.97-16.25Q378.97-18.3 380.07-19.28 381.17-20.25 382.57-20.25L382.57-20.25Q384.07-20.25 385.02-19.28 385.97-18.3 386.5-16.68 387.02-15.05 387.25-13.05 387.47-11.05 387.47-9L387.47-9Q387.47-8.25 387.45-7.53 387.42-6.8 387.42-6.1L387.42-6.1Q387.42-5.6 387.62-5.28 387.82-4.95 388.62-4.95L388.62-4.95Q389.72-4.95 391.22-5.53 392.72-6.1 393.85-7.45 394.97-8.8 394.97-11.05L394.97-11.05Q394.97-12.2 394.62-12.98 394.27-13.75 393.67-14.45L393.67-14.45Q393.47-14.7 393.32-14.95 393.17-15.2 393.17-15.55L393.17-15.55Q393.17-16.5 393.95-17.07 394.72-17.65 395.7-17.93 396.67-18.2 397.32-18.2L397.32-18.2Q397.97-18.2 398.35-17.88 398.72-17.55 398.92-16.6L398.92-16.6Q399.12-15.95 399.22-15.18 399.32-14.4 399.32-13.4L399.32-13.4Q399.32-11.85 399.2-10.9 399.07-9.95 398.92-9.2L398.92-9.2Q398.77-8.55 398.7-7.93 398.62-7.3 398.62-6.45L398.62-6.45Q398.62-5.55 398.97-5.25 399.32-4.95 400.07-4.95L400.07-4.95Q402.92-4.95 404.72-6.93 406.52-8.9 406.52-11.75L406.52-11.75Q406.52-12.75 406.22-13.63 405.92-14.5 405.17-15.3L405.17-15.3Q404.77-15.8 404.52-16.13 404.27-16.45 404.27-16.95L404.27-16.95Q404.27-17.85 405.1-18.6 405.92-19.35 407.05-19.83 408.17-20.3 409.07-20.3L409.07-20.3Q410.42-20.3 410.82-19.05 411.22-17.8 411.22-16.2L411.22-16.2Q411.22-13.5 410.45-10.58 409.67-7.65 408.22-5.08 406.77-2.5 404.67-0.9 402.57 0.7 399.92 0.7L399.92 0.7Q397.22 0.7 396.22-0.85 395.22-2.4 395.37-4.6L395.37-4.6Q393.87-2.3 391.85-0.8 389.82 0.7 387.67 0.7ZM443.78 0.65L443.78 0.65Q439.98 0.65 437.85-1.53 435.73-3.7 435.73-7.6L435.73-7.6Q435.73-11.15 437.28-14.05 438.83-16.95 441.45-18.68 444.08-20.4 447.23-20.4L447.23-20.4Q450.23-20.4 452.03-18.93 453.83-17.45 453.83-15L453.83-15Q453.83-13.05 452.63-11.4 451.43-9.75 449.43-8.78 447.43-7.8 444.98-7.8L444.98-7.8Q441.98-7.8 440.08-9.15L440.08-9.15Q440.13-6.85 441.65-5.45 443.18-4.05 445.58-4.05L445.58-4.05Q447.03-4.05 448.55-4.58 450.08-5.1 451.18-6L451.18-6Q451.88-6.6 452.48-6.6L452.48-6.6Q452.98-6.6 453.3-6.28 453.63-5.95 453.63-5.45L453.63-5.45Q453.63-4.35 451.73-2.55L451.73-2.55Q448.38 0.65 443.78 0.65ZM444.53-11.1L444.53-11.1Q446.33-11.1 447.53-11.85 448.73-12.6 448.73-13.75L448.73-13.75Q448.73-14.7 447.93-15.23 447.13-15.75 445.73-15.75L445.73-15.75Q443.88-15.75 442.5-14.78 441.13-13.8 440.53-12.05L440.53-12.05Q441.23-11.6 442.33-11.35 443.43-11.1 444.53-11.1ZM518.1 0.55L518.1 0.55Q516.3 0.55 516.5-0.65L516.5-0.65Q517.05-2.8 517.42-5.03 517.8-7.25 517.8-9.3L517.8-9.3Q517.8-11.95 517.47-13.18 517.15-14.4 516.6-14.88 516.05-15.35 515.25-15.6L515.25-15.6Q514.9-15.75 514.62-16 514.35-16.25 514.35-16.7L514.35-16.7Q514.35-17.4 514.9-18.25 515.45-19.1 516.47-19.73 517.5-20.35 518.8-20.35L518.8-20.35Q520.5-20.35 521.15-19.18 521.8-18 521.8-16.1L521.8-16.1Q521.8-14.85 521.55-13.3 521.3-11.75 521.05-10.5L521.05-10.5 521.15-10.45Q521.95-13.1 523.12-15.35 524.3-17.6 525.97-19 527.65-20.4 529.85-20.4L529.85-20.4Q532.1-20.4 533.4-18.88 534.7-17.35 534.7-14.4L534.7-14.4 534.7-13.3Q536.15-16.35 538.22-18.4 540.3-20.45 543.25-20.45L543.25-20.45Q545.65-20.45 547-18.85 548.35-17.25 548.35-14.85L548.35-14.85Q548.35-13.9 548.15-13.03 547.95-12.15 547.7-11.3L547.7-11.3Q547.5-10.5 547.3-9.65 547.1-8.8 547.1-7.95L547.1-7.95Q547.1-4.95 549.65-4.05L549.65-4.05Q550-3.9 550.2-3.73 550.4-3.55 550.4-3.1L550.4-3.1Q550.4-2.65 550.12-1.8 549.85-0.95 549.05-0.23 548.25 0.5 546.75 0.5L546.75 0.5Q544.8 0.5 543.75-0.93 542.7-2.35 542.7-4.55L542.7-4.55Q542.7-5.65 542.9-6.85 543.1-8.05 543.4-9.15L543.4-9.15Q543.65-10.15 543.82-11.05 544-11.95 544-12.6L544-12.6Q544-13.8 543.42-14.35 542.85-14.9 541.9-14.9L541.9-14.9Q540.3-14.9 539.02-13.9 537.75-12.9 536.77-11.3 535.8-9.7 535.1-7.8L535.1-7.8Q535.15-7.35 535.17-6.63 535.2-5.9 535.2-5.35L535.2-5.35Q535.2-4.4 535.07-3.35 534.95-2.3 534.6-1.6L534.6-1.6Q534.2-0.65 533.42-0.05 532.65 0.55 531.35 0.55L531.35 0.55Q530.8 0.55 530.3 0.33 529.8 0.1 529.8-0.4L529.8-0.4Q529.8-0.6 530.1-2.18 530.4-3.75 530.7-6.05 531-8.35 531-10.55L531-10.55Q531-12.95 530.5-13.88 530-14.8 529-14.8L529-14.8Q527.75-14.8 526.62-13.75 525.5-12.7 524.57-11.05 523.65-9.4 522.97-7.6 522.3-5.8 521.9-4.25L521.9-4.25 521.9-3.7Q521.9-1.85 520.87-0.65 519.85 0.55 518.1 0.55ZM581.35 0.65L581.35 0.65Q578.35 0.65 576.53-1.23 574.7-3.1 574.7-6.6L574.7-6.6Q574.7-9.1 575.68-11.58 576.65-14.05 578.5-16.05 580.35-18.05 582.95-19.25 585.55-20.45 588.8-20.45L588.8-20.45Q591.8-20.45 593.93-19.43 596.05-18.4 596.05-16.65L596.05-16.65Q596.05-16.2 595.95-15.48 595.85-14.75 595.7-14.3L595.7-14.3Q595.55-13.9 595.28-13.58 595-13.25 594.55-13.25L594.55-13.25Q594.35-13.25 593.8-13.4L593.8-13.4Q593.6-12.35 593.5-11.35 593.4-10.35 593.4-9.35L593.4-9.35Q593.4-7.45 593.98-5.98 594.55-4.5 596.25-4.15L596.25-4.15Q596.7-4.05 596.98-3.85 597.25-3.65 597.25-3L597.25-3Q597.25-2.45 596.98-1.6 596.7-0.75 595.93-0.08 595.15 0.6 593.7 0.6L593.7 0.6Q591.75 0.6 590.7-0.83 589.65-2.25 589.65-4.9L589.65-4.9Q588.3-2.45 586.23-0.9 584.15 0.65 581.35 0.65ZM582.95-4.55L582.95-4.55Q584.95-4.55 586.48-5.8 588-7.05 588.85-8.95L588.85-8.95Q589.4-10.15 589.7-11.58 590-13 590.1-14.4L590.1-14.4Q589.25-14.8 588.15-15.05 587.05-15.3 585.85-15.3L585.85-15.3Q582.8-15.3 580.83-13.5 578.85-11.7 578.85-9L578.85-9Q578.85-7 579.95-5.78 581.05-4.55 582.95-4.55ZM628.16 0.65L628.16 0.65Q625.16 0.65 623.44-1.35 621.71-3.35 621.71-6.8L621.71-6.8Q621.71-9.35 622.54-11.8 623.36-14.25 624.86-16.2 626.36-18.15 628.36-19.3 630.36-20.45 632.71-20.45L632.71-20.45Q634.21-20.45 635.39-20 636.56-19.55 637.46-18.85L637.46-18.85Q637.41-22.25 637.11-24.95 636.81-27.65 635.66-29.95L635.66-29.95Q635.46-30.35 635.34-30.68 635.21-31 635.21-31.3L635.21-31.3Q635.21-32 635.79-32.6 636.36-33.2 637.21-33.6 638.06-34 638.81-34L638.81-34Q640.16-34 640.84-32.83 641.51-31.65 641.71-29.63 641.91-27.6 641.91-25L641.91-25Q641.91-21.2 641.56-18.15 641.21-15.1 640.91-12.8L640.91-12.8Q640.71-11.3 640.56-10.2 640.41-9.1 640.41-8.4L640.41-8.4Q640.41-4.85 643.46-4.2L643.46-4.2Q644.26-4.05 644.26-3.15L644.26-3.15Q644.26-2.6 643.94-1.75 643.61-0.9 642.76-0.23 641.91 0.45 640.31 0.45L640.31 0.45Q638.16 0.45 637.41-1 636.66-2.45 636.66-5.4L636.66-5.4Q635.26-2.85 633.11-1.1 630.96 0.65 628.16 0.65ZM629.71-4.7L629.71-4.7Q631.11-4.7 632.51-5.6 633.91-6.5 635.01-8.05L635.01-8.05Q635.66-9 636.19-10.23 636.71-11.45 637.16-12.7L637.16-12.7Q634.61-15 631.51-15L631.51-15Q628.81-15 627.21-13.38 625.61-11.75 625.61-9.35L625.61-9.35Q625.61-7.3 626.81-6 628.01-4.7 629.71-4.7ZM676.92 0.65L676.92 0.65Q673.12 0.65 670.99-1.53 668.87-3.7 668.87-7.6L668.87-7.6Q668.87-11.15 670.42-14.05 671.97-16.95 674.59-18.68 677.22-20.4 680.37-20.4L680.37-20.4Q683.37-20.4 685.17-18.93 686.97-17.45 686.97-15L686.97-15Q686.97-13.05 685.77-11.4 684.57-9.75 682.57-8.78 680.57-7.8 678.12-7.8L678.12-7.8Q675.12-7.8 673.22-9.15L673.22-9.15Q673.27-6.85 674.79-5.45 676.32-4.05 678.72-4.05L678.72-4.05Q680.17-4.05 681.69-4.58 683.22-5.1 684.32-6L684.32-6Q685.02-6.6 685.62-6.6L685.62-6.6Q686.12-6.6 686.44-6.28 686.77-5.95 686.77-5.45L686.77-5.45Q686.77-4.35 684.87-2.55L684.87-2.55Q681.52 0.65 676.92 0.65ZM677.67-11.1L677.67-11.1Q679.47-11.1 680.67-11.85 681.87-12.6 681.87-13.75L681.87-13.75Q681.87-14.7 681.07-15.23 680.27-15.75 678.87-15.75L678.87-15.75Q677.02-15.75 675.64-14.78 674.27-13.8 673.67-12.05L673.67-12.05Q674.37-11.6 675.47-11.35 676.57-11.1 677.67-11.1Z" opacity="1" transform="matrix(1,0,0,1,0,0)" fill="#000000" class="slogan-text-1" data-fill-palette-color="secondary" id="text-1"></path></svg></g></svg></g></svg></g></svg></g><g transform="matrix(1,0,0,1,400.7623413154379,0)"><svg viewBox="0 0 139.40488703802157 139.40488703802157" height="139.40488703802157" width="139.40488703802157"><g><svg xmlns="http://www.w3.org/2000/svg" xmlns:xlink="http://www.w3.org/1999/xlink" version="1.1" x="0" y="0" viewBox="5 5 90 90" enable-background="new 0 0 100 100" xml:space="preserve" height="139.40488703802157" width="139.40488703802157" class="icon-icon-0" data-fill-palette-color="accent" id="icon-0"><path fill="#8f6449" d="M89.66 21.865H74.659A5 5 0 0 0 69.66 26.865 4.997 4.997 0 0 0 74.659 31.865H77.591L71.928 37.528C66.723 42.733 60.785 44.955 52.071 44.956L39.873 44.965C28.414 44.966 17.884 50.387 10.723 57.548L6.805 61.466A5 5 0 0 0 13.876 68.536L17.793 64.619C22.999 59.413 31.163 54.966 39.877 54.965L52.076 54.956C63.534 54.954 71.839 51.761 79 44.6L84.661 38.938V41.867A5 5 0 1 0 94.661 41.867V26.865A5 5 0 0 0 89.66 21.865" data-fill-palette-color="accent"></path><path fill="#8f6449" d="M90 66H40.313A14.46 14.46 0 0 0 30.06 70.247C27.593 72.715 8.881 89.289 6.559 91.35 4.526 93.202 4.765 94.886 7.515 94.886H52.951A5 5 0 0 0 54 95H90A5 5 0 0 0 95 90V71A5 5 0 0 0 90 66" data-fill-palette-color="accent"></path><path fill="#8f6449" d="M10 34H36.687C40.691 34 44.316 32.377 46.94 29.753 49.408 27.285 68.12 10.711 70.442 8.65 72.475 6.798 72.235 5.114 69.485 5.114L10 5A5 5 0 0 0 5 10V29A5 5 0 0 0 10 34" data-fill-palette-color="accent"></path></svg></g></svg></g></svg></g></svg></g></svg></g></svg></g><defs></defs></svg><rect width="395.52" height="247.2" fill="none" stroke="none" visibility="hidden"></rect></g></svg></g></svg>